{
  "midiMaxMin": [53,81],
  "velMaxMin": [0.16,0.89],
  "durMaxMin": [0.05,2.6],
  "duration" : 165.6,
  "header": {
    "keySignatures": [
      {
        "key": "C",
        "scale": "major",
        "ticks": 0
      }
    ],
    "meta": [
      {
        "text": "Location 1",
        "ticks": 98046,
        "type": "marker"
      },
      {
        "text": "76",
        "ticks": 1385121,
        "type": "marker"
      }
    ],
    "name": "",
    "ppq": 9600,
    "tempos": [
      {
        "bpm": 138.38372422891436,
        "ticks": 0
      },
      {
        "bpm": 138.38372422891436,
        "ticks": 0
      },
      {
        "bpm": 129.502645091526,
        "ticks": 20167
      },
      {
        "bpm": 139.31457230426304,
        "ticks": 29767
      },
      {
        "bpm": 133.81208323111576,
        "ticks": 39367
      },
      {
        "bpm": 136.39866602104632,
        "ticks": 48967
      },
      {
        "bpm": 137.719231802125,
        "ticks": 58567
      },
      {
        "bpm": 142.34233806779767,
        "ticks": 68167
      },
      {
        "bpm": 134.09679106378985,
        "ticks": 77767
      },
      {
        "bpm": 138.82461823229985,
        "ticks": 87367
      },
      {
        "bpm": 145.70498141047278,
        "ticks": 96967
      },
      {
        "bpm": 148.62668939003606,
        "ticks": 106567
      },
      {
        "bpm": 140.68490099300092,
        "ticks": 116167
      },
      {
        "bpm": 141.67148743255848,
        "ticks": 125767
      },
      {
        "bpm": 140.37878876501762,
        "ticks": 135367
      },
      {
        "bpm": 137.86289535057387,
        "ticks": 144967
      },
      {
        "bpm": 136.87848612394347,
        "ticks": 154567
      },
      {
        "bpm": 151.39892607695103,
        "ticks": 164167
      },
      {
        "bpm": 147.0325162409667,
        "ticks": 173767
      },
      {
        "bpm": 152.78916622951988,
        "ticks": 183367
      },
      {
        "bpm": 147.74686037921694,
        "ticks": 192967
      },
      {
        "bpm": 150.36651838857213,
        "ticks": 202567
      },
      {
        "bpm": 158.49074546122128,
        "ticks": 212167
      },
      {
        "bpm": 145.66465568517012,
        "ticks": 221767
      },
      {
        "bpm": 150.82956259426848,
        "ticks": 231367
      },
      {
        "bpm": 152.11284745109572,
        "ticks": 240967
      },
      {
        "bpm": 137.0204000538947,
        "ticks": 250567
      },
      {
        "bpm": 146.68205198411923,
        "ticks": 260167
      },
      {
        "bpm": 135.40747494397516,
        "ticks": 269767
      },
      {
        "bpm": 151.73739315158565,
        "ticks": 279367
      },
      {
        "bpm": 145.3467246115609,
        "ticks": 288967
      },
      {
        "bpm": 148.9613668695024,
        "ticks": 327367
      },
      {
        "bpm": 145.94208045300422,
        "ticks": 365767
      },
      {
        "bpm": 145.80128742536797,
        "ticks": 442567
      },
      {
        "bpm": 156.76274481115314,
        "ticks": 480967
      },
      {
        "bpm": 157.27515550581,
        "ticks": 519367
      },
      {
        "bpm": 163.696931501019,
        "ticks": 548167
      },
      {
        "bpm": 144.43214096576958,
        "ticks": 557767
      },
      {
        "bpm": 144.11367686831372,
        "ticks": 596167
      },
      {
        "bpm": 146.15538265915103,
        "ticks": 672967
      },
      {
        "bpm": 145.7209056068547,
        "ticks": 692167
      },
      {
        "bpm": 143.47167988598784,
        "ticks": 711367
      },
      {
        "bpm": 145.2369540905988,
        "ticks": 768967
      },
      {
        "bpm": 147.11435198579855,
        "ticks": 845767
      },
      {
        "bpm": 153.23126428562307,
        "ticks": 864967
      },
      {
        "bpm": 153.67632180846294,
        "ticks": 903367
      },
      {
        "bpm": 144.12544678888506,
        "ticks": 941767
      },
      {
        "bpm": 145.3368666340466,
        "ticks": 980167
      },
      {
        "bpm": 150.03413276520408,
        "ticks": 1018567
      },
      {
        "bpm": 142.56454609824598,
        "ticks": 1056967
      },
      {
        "bpm": 148.66019994796892,
        "ticks": 1095367
      },
      {
        "bpm": 146.44683369741642,
        "ticks": 1133767
      },
      {
        "bpm": 157.47204871135372,
        "ticks": 1172167
      },
      {
        "bpm": 157.9325575335146,
        "ticks": 1210567
      },
      {
        "bpm": 149.62668142983256,
        "ticks": 1229767
      },
      {
        "bpm": 157.37828756685298,
        "ticks": 1248967
      },
      {
        "bpm": 157.40636288987588,
        "ticks": 1287367
      },
      {
        "bpm": 157.36879376819576,
        "ticks": 1325767
      },
      {
        "bpm": 144.74852356505963,
        "ticks": 1364167
      },
      {
        "bpm": 121.86799259042606,
        "ticks": 1373767
      },
      {
        "bpm": 125.2128618651708,
        "ticks": 1383367
      },
      {
        "bpm": 131.79919075296877,
        "ticks": 1402567
      },
      {
        "bpm": 142.34976761400438,
        "ticks": 1412167
      },
      {
        "bpm": 131.17191172130342,
        "ticks": 1421767
      },
      {
        "bpm": 132.48542660307365,
        "ticks": 1431367
      },
      {
        "bpm": 117.05900944666206,
        "ticks": 1440967
      },
      {
        "bpm": 99.35419771485346,
        "ticks": 1450567
      },
      {
        "bpm": 99.35419771485346,
        "ticks": 1460167
      },
      {
        "bpm": 83.968696469956,
        "ticks": 1510305
      },
      {
        "bpm": 93.50892230967038,
        "ticks": 1517767
      },
      {
        "bpm": 94.25085493379663,
        "ticks": 1556167
      },
      {
        "bpm": 94.89992012590056,
        "ticks": 1594567
      },
      {
        "bpm": 91.56349241472768,
        "ticks": 1632967
      },
      {
        "bpm": 92.99225839448866,
        "ticks": 1671367
      },
      {
        "bpm": 97.09020651086925,
        "ticks": 1709767
      },
      {
        "bpm": 94.66902918488388,
        "ticks": 1748167
      },
      {
        "bpm": 93.94640670652082,
        "ticks": 1786567
      },
      {
        "bpm": 98.93072376068658,
        "ticks": 1824967
      },
      {
        "bpm": 99.46999073271253,
        "ticks": 1863367
      },
      {
        "bpm": 100.93074973043079,
        "ticks": 1901767
      },
      {
        "bpm": 102.94914998318497,
        "ticks": 1940167
      },
      {
        "bpm": 103.79311955410476,
        "ticks": 2016967
      },
      {
        "bpm": 99.66860189868687,
        "ticks": 2055367
      },
      {
        "bpm": 98.56959095262582,
        "ticks": 2074567
      },
      {
        "bpm": 90.60405724968363,
        "ticks": 2093767
      },
      {
        "bpm": 90.60405724968363,
        "ticks": 2112967
      },
      {
        "bpm": 335.94624860022395,
        "ticks": 2136967
      },
      {
        "bpm": 193.7890606075287,
        "ticks": 2208967
      },
      {
        "bpm": 208.4476900521814,
        "ticks": 2324167
      },
      {
        "bpm": 212.03061722112673,
        "ticks": 2554567
      },
      {
        "bpm": 212.5074820342633,
        "ticks": 2669767
      },
      {
        "bpm": 221.80654033551937,
        "ticks": 2900167
      },
      {
        "bpm": 207.77925531914894,
        "ticks": 2986567
      },
      {
        "bpm": 206.83164937898798,
        "ticks": 3015367
      },
      {
        "bpm": 182.95360296628775,
        "ticks": 3053767
      },
      {
        "bpm": 148.58473044253486,
        "ticks": 3082567
      },
      {
        "bpm": 104.88355303524263,
        "ticks": 3092167
      },
      {
        "bpm": 84.54752980300425,
        "ticks": 3101767
      },
      {
        "bpm": 196.45078907733614,
        "ticks": 3130567
      },
      {
        "bpm": 212.91771794789904,
        "ticks": 3245767
      },
      {
        "bpm": 212.8210494205947,
        "ticks": 3360967
      },
      {
        "bpm": 219.0036792618116,
        "ticks": 3476167
      },
      {
        "bpm": 214.99288731864453,
        "ticks": 3591367
      },
      {
        "bpm": 214.84892539729148,
        "ticks": 3716167
      },
      {
        "bpm": 220.35329979066435,
        "ticks": 3821767
      },
      {
        "bpm": 225.58850400983565,
        "ticks": 3879367
      },
      {
        "bpm": 217.78979654803172,
        "ticks": 3908167
      },
      {
        "bpm": 179.52784177612878,
        "ticks": 3936967
      },
      {
        "bpm": 156.05087258446252,
        "ticks": 3965767
      },
      {
        "bpm": 126.5785398743497,
        "ticks": 3994567
      }
    ],
    "timeSignatures": [
      {
        "ticks": 0,
        "timeSignature": [
          4,
          4
        ],
        "measures": 0
      },
      {
        "ticks": 20167,
        "timeSignature": [
          2,
          4
        ],
        "measures": 0.5251822916666666
      },
      {
        "ticks": 1536967,
        "timeSignature": [
          4,
          4
        ],
        "measures": 79.52518229166667
      },
      {
        "ticks": 2304967,
        "timeSignature": [
          3,
          4
        ],
        "measures": 99.52518229166667
      }
    ]
  },
  "tracks": [
    {
      "channel": 0,
      "controlChanges": {
        "10": [
          {
            "number": 10,
            "ticks": 0,
            "time": 0,
            "value": 0.5039370078740157
          },
          {
            "number": 10,
            "ticks": 20168,
            "time": 0.9108761114583332,
            "value": 0.5039370078740157
          },
          {
            "number": 10,
            "ticks": 1517767,
            "time": 66.29261672739585,
            "value": 0.5039370078740157
          },
          {
            "number": 10,
            "ticks": 2208967,
            "time": 107.6305957273959,
            "value": 0.5039370078740157
          }
        ],
        "91": [
          {
            "number": 91,
            "ticks": 2208967,
            "time": 107.6305957273959,
            "value": 0
          }
        ],
        "93": [
          {
            "number": 93,
            "ticks": 2208967,
            "time": 107.6305957273959,
            "value": 0
          }
        ]
      },
      "pitchBends": [],
      "instrument": {
        "family": "piano",
        "number": 0,
        "name": "acoustic grand piano"
      },
      "name": "Right Hand",
      "notes": [
        {
          "duration": 2.537217705520833,
          "durationTicks": 55269,
          "midi": 64,
          "name": "E4",
          "ticks": 20078,
          "time": 0.9068082297916666,
          "velocity": 0.5748031496062992
        },
        {
          "duration": 0.8628696152083335,
          "durationTicks": 18828,
          "midi": 64,
          "name": "E4",
          "ticks": 77780,
          "time": 3.5508897555208336,
          "velocity": 0.6141732283464567
        },
        {
          "duration": 0.41536836083333295,
          "durationTicks": 9685,
          "midi": 62,
          "name": "D4",
          "ticks": 96966,
          "time": 4.429876829062501,
          "velocity": 0.6062992125984252
        },
        {
          "duration": 0.4020888782291667,
          "durationTicks": 9558,
          "midi": 65,
          "name": "F4",
          "ticks": 106676,
          "time": 4.846296481562501,
          "velocity": 0.6062992125984252
        },
        {
          "duration": 0.40850351864583345,
          "durationTicks": 9200,
          "midi": 64,
          "name": "E4",
          "ticks": 116078,
          "time": 5.241666251562501,
          "velocity": 0.6456692913385826
        },
        {
          "duration": 0.1332493229166678,
          "durationTicks": 3020,
          "midi": 69,
          "name": "A4",
          "ticks": 125707,
          "time": 5.669228318645834,
          "velocity": 0.6062992125984252
        },
        {
          "duration": 0.12639908177083292,
          "durationTicks": 2839,
          "midi": 69,
          "name": "A4",
          "ticks": 135417,
          "time": 6.097634969687501,
          "velocity": 0.6141732283464567
        },
        {
          "duration": 0.12254022343750037,
          "durationTicks": 2703,
          "midi": 69,
          "name": "A4",
          "ticks": 144970,
          "time": 6.522959854583334,
          "velocity": 0.5669291338582677
        },
        {
          "duration": 0.8579960997916674,
          "durationTicks": 19740,
          "midi": 69,
          "name": "A4",
          "ticks": 154428,
          "time": 6.951737299375001,
          "velocity": 0.6456692913385826
        },
        {
          "duration": 0.19418536906249972,
          "durationTicks": 4569,
          "midi": 65,
          "name": "F4",
          "ticks": 173741,
          "time": 7.791614526562501,
          "velocity": 0.4881889763779528
        },
        {
          "duration": 0.19349461416666625,
          "durationTicks": 4552,
          "midi": 62,
          "name": "D4",
          "ticks": 178558,
          "time": 7.996341781458335,
          "velocity": 0.5039370078740157
        },
        {
          "duration": 0.18884864791666622,
          "durationTicks": 4615,
          "midi": 65,
          "name": "F4",
          "ticks": 183325,
          "time": 8.198975530520835,
          "velocity": 0.47244094488188976
        },
        {
          "duration": 0.19819116791666502,
          "durationTicks": 4845,
          "midi": 62,
          "name": "D4",
          "ticks": 188123,
          "time": 8.395309984062502,
          "velocity": 0.5039370078740157
        },
        {
          "duration": 0.416525020729166,
          "durationTicks": 9853,
          "midi": 64,
          "name": "E4",
          "ticks": 192829,
          "time": 8.587813816145834,
          "velocity": 0.5275590551181102
        },
        {
          "duration": 0.19405053677083473,
          "durationTicks": 4913,
          "midi": 65,
          "name": "F4",
          "ticks": 212022,
          "time": 9.392556909791667,
          "velocity": 0.48031496062992124
        },
        {
          "duration": 0.1958207156249987,
          "durationTicks": 4960,
          "midi": 62,
          "name": "D4",
          "ticks": 216872,
          "time": 9.584123074375,
          "velocity": 0.5275590551181102
        },
        {
          "duration": 0.21311793072916707,
          "durationTicks": 4967,
          "midi": 65,
          "name": "F4",
          "ticks": 221825,
          "time": 9.779643442604167,
          "velocity": 0.4645669291338583
        },
        {
          "duration": 0.20088950104166692,
          "durationTicks": 4682,
          "midi": 62,
          "name": "D4",
          "ticks": 226602,
          "time": 9.984609086875,
          "velocity": 0.5118110236220472
        },
        {
          "duration": 0.3846643125,
          "durationTicks": 9283,
          "midi": 64,
          "name": "E4",
          "ticks": 231402,
          "time": 10.190510162395833,
          "velocity": 0.4881889763779528
        },
        {
          "duration": 0.4473411074999998,
          "durationTicks": 9822,
          "midi": 65,
          "name": "F4",
          "ticks": 250561,
          "time": 10.981057322395834,
          "velocity": 0.4881889763779528
        },
        {
          "duration": 0.4117055447916673,
          "durationTicks": 9658,
          "midi": 69,
          "name": "A4",
          "ticks": 260131,
          "time": 11.417552758645835,
          "velocity": 0.4881889763779528
        },
        {
          "duration": 0.804970543333333,
          "durationTicks": 18394,
          "midi": 64,
          "name": "E4",
          "ticks": 269839,
          "time": 11.831566152395835,
          "velocity": 0.5196850393700787
        },
        {
          "duration": 0.3992453860416667,
          "durationTicks": 9287,
          "midi": 65,
          "name": "F4",
          "ticks": 288911,
          "time": 12.664463233229167,
          "velocity": 0.4881889763779528
        },
        {
          "duration": 0.4252331806249998,
          "durationTicks": 9889,
          "midi": 69,
          "name": "A4",
          "ticks": 298502,
          "time": 13.076780809270835,
          "velocity": 0.5196850393700787
        },
        {
          "duration": 0.7989946131250001,
          "durationTicks": 18581,
          "midi": 64,
          "name": "E4",
          "ticks": 308266,
          "time": 13.496638911770834,
          "velocity": 0.47244094488188976
        },
        {
          "duration": 0.09513259562499954,
          "durationTicks": 2267,
          "midi": 62,
          "name": "D4",
          "ticks": 327352,
          "time": 14.317348840520834,
          "velocity": 0.6929133858267716
        },
        {
          "duration": 0.09549455875000135,
          "durationTicks": 2276,
          "midi": 62,
          "name": "D4",
          "ticks": 336862,
          "time": 14.716377345208333,
          "velocity": 0.6614173228346457
        },
        {
          "duration": 0.09272538437499911,
          "durationTicks": 2210,
          "midi": 62,
          "name": "D4",
          "ticks": 346524,
          "time": 15.121767690833334,
          "velocity": 0.6929133858267716
        },
        {
          "duration": 0.09356452812500038,
          "durationTicks": 2230,
          "midi": 62,
          "name": "D4",
          "ticks": 356149,
          "time": 15.525605620520833,
          "velocity": 0.7244094488188977
        },
        {
          "duration": 1.1642889389583342,
          "durationTicks": 27187,
          "midi": 62,
          "name": "D4",
          "ticks": 365797,
          "time": 15.930434606145832,
          "velocity": 0.5984251968503937
        },
        {
          "duration": 0.08346633104166656,
          "durationTicks": 1949,
          "midi": 62,
          "name": "D4",
          "ticks": 404227,
          "time": 17.57620736239583,
          "velocity": 0.6692913385826772
        },
        {
          "duration": 0.08672104687499882,
          "durationTicks": 2025,
          "midi": 62,
          "name": "D4",
          "ticks": 413681,
          "time": 17.981076881979167,
          "velocity": 0.6456692913385826
        },
        {
          "duration": 0.08042574125000002,
          "durationTicks": 1878,
          "midi": 62,
          "name": "D4",
          "ticks": 423306,
          "time": 18.393269512187498,
          "velocity": 0.6456692913385826
        },
        {
          "duration": 0.08719212416666622,
          "durationTicks": 2036,
          "midi": 62,
          "name": "D4",
          "ticks": 432892,
          "time": 18.803791959270832,
          "velocity": 0.6220472440944882
        },
        {
          "duration": 1.2067366009375,
          "durationTicks": 28151,
          "midi": 62,
          "name": "D4",
          "ticks": 442600,
          "time": 19.219540446458335,
          "velocity": 0.6614173228346457
        },
        {
          "duration": 0.12173764718750135,
          "durationTicks": 3052,
          "midi": 67,
          "name": "G4",
          "ticks": 480948,
          "time": 20.863387385208334,
          "velocity": 0.49606299212598426
        },
        {
          "duration": 0.1310898199999997,
          "durationTicks": 3288,
          "midi": 64,
          "name": "E4",
          "ticks": 485712,
          "time": 21.053381045729168,
          "velocity": 0.5118110236220472
        },
        {
          "duration": 0.12415258500000093,
          "durationTicks": 3114,
          "midi": 67,
          "name": "G4",
          "ticks": 490471,
          "time": 21.243118409895835,
          "velocity": 0.5511811023622047
        },
        {
          "duration": 0.11837155583333114,
          "durationTicks": 2969,
          "midi": 64,
          "name": "E4",
          "ticks": 495301,
          "time": 21.435686484895836,
          "velocity": 0.49606299212598426
        },
        {
          "duration": 0.1276610716666653,
          "durationTicks": 3202,
          "midi": 67,
          "name": "G4",
          "ticks": 500159,
          "time": 21.629370896562502,
          "velocity": 0.5511811023622047
        },
        {
          "duration": 0.1298937450000004,
          "durationTicks": 3258,
          "midi": 64,
          "name": "E4",
          "ticks": 504873,
          "time": 21.81731414822917,
          "velocity": 0.5118110236220472
        },
        {
          "duration": 0.12375389333333331,
          "durationTicks": 3104,
          "midi": 67,
          "name": "G4",
          "ticks": 509639,
          "time": 22.0073305965625,
          "velocity": 0.5511811023622047
        },
        {
          "duration": 0.11964736916666752,
          "durationTicks": 3001,
          "midi": 64,
          "name": "E4",
          "ticks": 514648,
          "time": 22.207035252395833,
          "velocity": 0.5118110236220472
        },
        {
          "duration": 0.12507559239583088,
          "durationTicks": 3147,
          "midi": 67,
          "name": "G4",
          "ticks": 519243,
          "time": 22.39023407322917,
          "velocity": 0.49606299212598426
        },
        {
          "duration": 0.12513896385416956,
          "durationTicks": 3149,
          "midi": 64,
          "name": "E4",
          "ticks": 524253,
          "time": 22.5893439271875,
          "velocity": 0.5118110236220472
        },
        {
          "duration": 0.1294308051041675,
          "durationTicks": 3257,
          "midi": 67,
          "name": "G4",
          "ticks": 529121,
          "time": 22.782794697604167,
          "velocity": 0.5118110236220472
        },
        {
          "duration": 0.11909859468750028,
          "durationTicks": 2997,
          "midi": 64,
          "name": "E4",
          "ticks": 533813,
          "time": 22.969251356354167,
          "velocity": 0.4881889763779528
        },
        {
          "duration": 0.36413093864583246,
          "durationTicks": 9163,
          "midi": 67,
          "name": "G4",
          "ticks": 538560,
          "time": 23.157893675,
          "velocity": 0.5196850393700787
        },
        {
          "duration": 0.38973876156249787,
          "durationTicks": 9009,
          "midi": 69,
          "name": "A4",
          "ticks": 557746,
          "time": 23.905398063333333,
          "velocity": 0.5905511811023622
        },
        {
          "duration": 0.12687619166666764,
          "durationTicks": 2932,
          "midi": 65,
          "name": "F4",
          "ticks": 567258,
          "time": 24.316903101979165,
          "velocity": 0.5669291338582677
        },
        {
          "duration": 0.13436240625000195,
          "durationTicks": 3105,
          "midi": 64,
          "name": "E4",
          "ticks": 572201,
          "time": 24.530801129062496,
          "velocity": 0.6141732283464567
        },
        {
          "duration": 0.4109628895833346,
          "durationTicks": 9497,
          "midi": 62,
          "name": "D4",
          "ticks": 577015,
          "time": 24.73911694989583,
          "velocity": 0.5905511811023622
        },
        {
          "duration": 0.4152492920833346,
          "durationTicks": 9575,
          "midi": 69,
          "name": "A4",
          "ticks": 596120,
          "time": 25.565846022812497,
          "velocity": 0.5748031496062992
        },
        {
          "duration": 0.13578690395833348,
          "durationTicks": 3131,
          "midi": 65,
          "name": "F4",
          "ticks": 605722,
          "time": 25.98226626552083,
          "velocity": 0.6062992125984252
        },
        {
          "duration": 0.1255952966666669,
          "durationTicks": 2896,
          "midi": 64,
          "name": "E4",
          "ticks": 610623,
          "time": 26.194815488229164,
          "velocity": 0.6299212598425197
        },
        {
          "duration": 0.43156035812500093,
          "durationTicks": 9951,
          "midi": 62,
          "name": "D4",
          "ticks": 615295,
          "time": 26.39743331489583,
          "velocity": 0.5905511811023622
        },
        {
          "duration": 0.22689893041666664,
          "durationTicks": 5306,
          "midi": 62,
          "name": "D4",
          "ticks": 673038,
          "time": 28.9016200021875,
          "velocity": 0.8188976377952756
        },
        {
          "duration": 0.20594520333333222,
          "durationTicks": 4816,
          "midi": 67,
          "name": "G4",
          "ticks": 673123,
          "time": 28.905254832395833,
          "velocity": 0.7559055118110236
        },
        {
          "duration": 0.20624454229166744,
          "durationTicks": 4823,
          "midi": 67,
          "name": "G4",
          "ticks": 682495,
          "time": 29.306026934895833,
          "velocity": 0.7716535433070866
        },
        {
          "duration": 0.21129054187499818,
          "durationTicks": 4941,
          "midi": 62,
          "name": "D4",
          "ticks": 682656,
          "time": 29.3129117309375,
          "velocity": 0.7952755905511811
        },
        {
          "duration": 0.823560695416667,
          "durationTicks": 19202,
          "midi": 62,
          "name": "D4",
          "ticks": 692033,
          "time": 29.713897646979166,
          "velocity": 0.8031496062992126
        },
        {
          "duration": 0.7853197145833306,
          "durationTicks": 18310,
          "midi": 67,
          "name": "G4",
          "ticks": 692261,
          "time": 29.723659529479168,
          "velocity": 0.7952755905511811
        },
        {
          "duration": 2.4915905704166654,
          "durationTicks": 57196,
          "midi": 64,
          "name": "E4",
          "ticks": 711343,
          "time": 30.542090484895834,
          "velocity": 0.7795275590551181
        },
        {
          "duration": 0.7992972637499989,
          "durationTicks": 18574,
          "midi": 64,
          "name": "E4",
          "ticks": 769067,
          "time": 33.056629162395836,
          "velocity": 0.5669291338582677
        },
        {
          "duration": 0.43153617749999995,
          "durationTicks": 10028,
          "midi": 62,
          "name": "D4",
          "ticks": 788132,
          "time": 33.877055690520834,
          "velocity": 0.6692913385826772
        },
        {
          "duration": 0.14050315312500317,
          "durationTicks": 3265,
          "midi": 65,
          "name": "F4",
          "ticks": 797789,
          "time": 34.29262657864584,
          "velocity": 0.5669291338582677
        },
        {
          "duration": 0.13852362937499407,
          "durationTicks": 3219,
          "midi": 64,
          "name": "E4",
          "ticks": 807503,
          "time": 34.71065035489584,
          "velocity": 0.5748031496062992
        },
        {
          "duration": 0.1429130081250065,
          "durationTicks": 3321,
          "midi": 69,
          "name": "A4",
          "ticks": 816954,
          "time": 35.117356419270834,
          "velocity": 0.6299212598425197
        },
        {
          "duration": 0.1304764350000056,
          "durationTicks": 3032,
          "midi": 69,
          "name": "A4",
          "ticks": 826405,
          "time": 35.524062483645835,
          "velocity": 0.6141732283464567
        },
        {
          "duration": 0.1429130081249994,
          "durationTicks": 3321,
          "midi": 69,
          "name": "A4",
          "ticks": 836247,
          "time": 35.947594499895835,
          "velocity": 0.6299212598425197
        },
        {
          "duration": 0.8063046927083377,
          "durationTicks": 18979,
          "midi": 69,
          "name": "A4",
          "ticks": 845764,
          "time": 36.357140750520834,
          "velocity": 0.6535433070866141
        },
        {
          "duration": 0.1405147317708284,
          "durationTicks": 3445,
          "midi": 65,
          "name": "F4",
          "ticks": 864978,
          "time": 37.173410518125,
          "velocity": 0.5039370078740157
        },
        {
          "duration": 0.14186073645833375,
          "durationTicks": 3478,
          "midi": 62,
          "name": "D4",
          "ticks": 869743,
          "time": 37.36776543739583,
          "velocity": 0.5039370078740157
        },
        {
          "duration": 0.1347636208333327,
          "durationTicks": 3304,
          "midi": 65,
          "name": "F4",
          "ticks": 874605,
          "time": 37.566076794687504,
          "velocity": 0.5039370078740157
        },
        {
          "duration": 0.13900557500000588,
          "durationTicks": 3408,
          "midi": 62,
          "name": "D4",
          "ticks": 879284,
          "time": 37.756923944166665,
          "velocity": 0.4881889763779528
        },
        {
          "duration": 0.3211240880208308,
          "durationTicks": 7873,
          "midi": 64,
          "name": "E4",
          "ticks": 884226,
          "time": 37.958498343125,
          "velocity": 0.4881889763779528
        },
        {
          "duration": 0.126320696458329,
          "durationTicks": 3106,
          "midi": 65,
          "name": "F4",
          "ticks": 903377,
          "time": 38.73962854885417,
          "velocity": 0.5039370078740157
        },
        {
          "duration": 0.1338039572916685,
          "durationTicks": 3290,
          "midi": 62,
          "name": "D4",
          "ticks": 908224,
          "time": 38.93675553395833,
          "velocity": 0.4409448818897638
        },
        {
          "duration": 0.12623935666666597,
          "durationTicks": 3104,
          "midi": 65,
          "name": "F4",
          "ticks": 912925,
          "time": 39.12794471427083,
          "velocity": 0.4881889763779528
        },
        {
          "duration": 0.12721543416667203,
          "durationTicks": 3128,
          "midi": 62,
          "name": "D4",
          "ticks": 917879,
          "time": 39.329423378229166,
          "velocity": 0.44881889763779526
        },
        {
          "duration": 0.39384727125000296,
          "durationTicks": 9684,
          "midi": 64,
          "name": "E4",
          "ticks": 922552,
          "time": 39.51947380145833,
          "velocity": 0.5511811023622047
        },
        {
          "duration": 0.4277523599999995,
          "durationTicks": 9864,
          "midi": 65,
          "name": "F4",
          "ticks": 941767,
          "time": 40.30094584989583,
          "velocity": 0.6377952755905512
        },
        {
          "duration": 0.4215511650000039,
          "durationTicks": 9721,
          "midi": 69,
          "name": "A4",
          "ticks": 951274,
          "time": 40.71321690489583,
          "velocity": 0.6141732283464567
        },
        {
          "duration": 0.8176904399999998,
          "durationTicks": 18856,
          "midi": 64,
          "name": "E4",
          "ticks": 961003,
          "time": 41.13511498989583,
          "velocity": 0.5748031496062992
        },
        {
          "duration": 0.4268961581249968,
          "durationTicks": 9927,
          "midi": 65,
          "name": "F4",
          "ticks": 980216,
          "time": 41.9682690234375,
          "velocity": 0.5984251968503937
        },
        {
          "duration": 0.392837353124996,
          "durationTicks": 9135,
          "midi": 69,
          "name": "A4",
          "ticks": 989724,
          "time": 42.37714669760417,
          "velocity": 0.6535433070866141
        },
        {
          "duration": 0.8463283792708296,
          "durationTicks": 19699,
          "midi": 64,
          "name": "E4",
          "ticks": 999461,
          "time": 42.7958721828125,
          "velocity": 0.6377952755905512
        },
        {
          "duration": 0.16546931989583413,
          "durationTicks": 3969,
          "midi": 62,
          "name": "D4",
          "ticks": 1018469,
          "time": 43.6132835028125,
          "velocity": 0.6692913385826772
        },
        {
          "duration": 0.16521240562499884,
          "durationTicks": 3966,
          "midi": 62,
          "name": "D4",
          "ticks": 1028206,
          "time": 44.019031480208334,
          "velocity": 0.6614173228346457
        },
        {
          "duration": 0.1643792618749984,
          "durationTicks": 3946,
          "midi": 62,
          "name": "D4",
          "ticks": 1037776,
          "time": 44.417690764583334,
          "velocity": 0.6141732283464567
        },
        {
          "duration": 0.17104441187500186,
          "durationTicks": 4106,
          "midi": 62,
          "name": "D4",
          "ticks": 1047329,
          "time": 44.81564187677083,
          "velocity": 0.6929133858267716
        },
        {
          "duration": 1.3399459591666627,
          "durationTicks": 30566,
          "midi": 62,
          "name": "D4",
          "ticks": 1056939,
          "time": 45.215967448645834,
          "velocity": 0.6850393700787402
        },
        {
          "duration": 0.14449899843749847,
          "durationTicks": 3437,
          "midi": 62,
          "name": "D4",
          "ticks": 1095443,
          "time": 46.90377705614583,
          "velocity": 0.5905511811023622
        },
        {
          "duration": 0.14903955468750496,
          "durationTicks": 3545,
          "midi": 62,
          "name": "D4",
          "ticks": 1104991,
          "time": 47.30519586239583,
          "velocity": 0.5669291338582677
        },
        {
          "duration": 0.1549675031250004,
          "durationTicks": 3686,
          "midi": 62,
          "name": "D4",
          "ticks": 1114526,
          "time": 47.70606812020833,
          "velocity": 0.5984251968503937
        },
        {
          "duration": 0.15963418593749878,
          "durationTicks": 3797,
          "midi": 62,
          "name": "D4",
          "ticks": 1124233,
          "time": 48.11417163427083,
          "velocity": 0.6062992125984252
        },
        {
          "duration": 1.240294200000001,
          "durationTicks": 29064,
          "midi": 62,
          "name": "D4",
          "ticks": 1133629,
          "time": 48.50920002802083,
          "velocity": 0.5905511811023622
        },
        {
          "duration": 0.14356066302083548,
          "durationTicks": 3614,
          "midi": 67,
          "name": "G4",
          "ticks": 1172126,
          "time": 50.152072068125,
          "velocity": 0.6220472440944882
        },
        {
          "duration": 0.14665301041667078,
          "durationTicks": 3695,
          "midi": 64,
          "name": "E4",
          "ticks": 1177059,
          "time": 50.3479832915625,
          "velocity": 0.5984251968503937
        },
        {
          "duration": 0.1447876000000008,
          "durationTicks": 3648,
          "midi": 67,
          "name": "G4",
          "ticks": 1181846,
          "time": 50.53797732697917,
          "velocity": 0.6062992125984252
        },
        {
          "duration": 0.15828205833333442,
          "durationTicks": 3988,
          "midi": 64,
          "name": "E4",
          "ticks": 1186671,
          "time": 50.7294795665625,
          "velocity": 0.6141732283464567
        },
        {
          "duration": 0.16415611666666763,
          "durationTicks": 4136,
          "midi": 67,
          "name": "G4",
          "ticks": 1191432,
          "time": 50.9184416728125,
          "velocity": 0.5748031496062992
        },
        {
          "duration": 0.14371598124999707,
          "durationTicks": 3621,
          "midi": 64,
          "name": "E4",
          "ticks": 1196275,
          "time": 51.11065832489584,
          "velocity": 0.6299212598425197
        },
        {
          "duration": 0.14105677916666792,
          "durationTicks": 3554,
          "midi": 67,
          "name": "G4",
          "ticks": 1200962,
          "time": 51.296683401979166,
          "velocity": 0.5984251968503937
        },
        {
          "duration": 0.1530033437500009,
          "durationTicks": 3855,
          "midi": 64,
          "name": "E4",
          "ticks": 1205670,
          "time": 51.4835419603125,
          "velocity": 0.6141732283464567
        },
        {
          "duration": 0.1433760736458325,
          "durationTicks": 3623,
          "midi": 67,
          "name": "G4",
          "ticks": 1210573,
          "time": 51.678139293020834,
          "velocity": 0.5748031496062992
        },
        {
          "duration": 0.16363788697916704,
          "durationTicks": 4135,
          "midi": 64,
          "name": "E4",
          "ticks": 1215227,
          "time": 51.8623160103125,
          "velocity": 0.5984251968503937
        },
        {
          "duration": 0.16098643875000107,
          "durationTicks": 4068,
          "midi": 67,
          "name": "G4",
          "ticks": 1220200,
          "time": 52.05911678708333,
          "velocity": 0.6299212598425197
        },
        {
          "duration": 0.1572664964583339,
          "durationTicks": 3974,
          "midi": 64,
          "name": "E4",
          "ticks": 1224997,
          "time": 52.24895256552083,
          "velocity": 0.6299212598425197
        },
        {
          "duration": 0.410526128020841,
          "durationTicks": 9829,
          "midi": 67,
          "name": "G4",
          "ticks": 1229750,
          "time": 52.437047094375,
          "velocity": 0.6220472440944882
        },
        {
          "duration": 0.4013021807291679,
          "durationTicks": 10105,
          "midi": 69,
          "name": "A4",
          "ticks": 1249028,
          "time": 53.242138356875,
          "velocity": 0.6220472440944882
        },
        {
          "duration": 0.38374893343750216,
          "durationTicks": 9663,
          "midi": 67,
          "name": "G4",
          "ticks": 1258579,
          "time": 53.621439408645834,
          "velocity": 0.6377952755905512
        },
        {
          "duration": 0.18589762572916868,
          "durationTicks": 4681,
          "midi": 65,
          "name": "F4",
          "ticks": 1268038,
          "time": 53.997086843333335,
          "velocity": 0.6456692913385826
        },
        {
          "duration": 0.19046464708333133,
          "durationTicks": 4796,
          "midi": 64,
          "name": "E4",
          "ticks": 1272986,
          "time": 54.193587901250005,
          "velocity": 0.6456692913385826
        },
        {
          "duration": 0.18633447124999947,
          "durationTicks": 4692,
          "midi": 65,
          "name": "F4",
          "ticks": 1277897,
          "time": 54.388619569687506,
          "velocity": 0.6220472440944882
        },
        {
          "duration": 0.18291913354166667,
          "durationTicks": 4606,
          "midi": 67,
          "name": "G4",
          "ticks": 1282564,
          "time": 54.57396121020834,
          "velocity": 0.6456692913385826
        },
        {
          "duration": 0.3865396271875028,
          "durationTicks": 9735,
          "midi": 69,
          "name": "A4",
          "ticks": 1287325,
          "time": 54.763035894270836,
          "velocity": 0.6220472440944882
        },
        {
          "duration": 0.3612465147916666,
          "durationTicks": 9098,
          "midi": 67,
          "name": "G4",
          "ticks": 1297003,
          "time": 55.147312271145836,
          "velocity": 0.6062992125984252
        },
        {
          "duration": 0.17689087968749817,
          "durationTicks": 4455,
          "midi": 65,
          "name": "F4",
          "ticks": 1306536,
          "time": 55.52583095937501,
          "velocity": 0.6220472440944882
        },
        {
          "duration": 0.1789953054166702,
          "durationTicks": 4508,
          "midi": 64,
          "name": "E4",
          "ticks": 1311323,
          "time": 55.71590427947917,
          "velocity": 0.6220472440944882
        },
        {
          "duration": 0.17677176124999505,
          "durationTicks": 4452,
          "midi": 65,
          "name": "F4",
          "ticks": 1316277,
          "time": 55.91260852593751,
          "velocity": 0.6850393700787402
        },
        {
          "duration": 0.19762018937499448,
          "durationTicks": 4977,
          "midi": 67,
          "name": "G4",
          "ticks": 1321075,
          "time": 56.10311861364584,
          "velocity": 0.7007874015748031
        },
        {
          "duration": 0.38190417031249524,
          "durationTicks": 9616,
          "midi": 69,
          "name": "A4",
          "ticks": 1325632,
          "time": 56.28405952020834,
          "velocity": 0.7716535433070866
        },
        {
          "duration": 0.3952101843749958,
          "durationTicks": 9951,
          "midi": 67,
          "name": "G4",
          "ticks": 1335345,
          "time": 56.66981610614584,
          "velocity": 0.7007874015748031
        },
        {
          "duration": 0.1882123468749981,
          "durationTicks": 4739,
          "midi": 65,
          "name": "F4",
          "ticks": 1344881,
          "time": 57.048544306145835,
          "velocity": 0.7559055118110236
        },
        {
          "duration": 0.18586912499999642,
          "durationTicks": 4680,
          "midi": 64,
          "name": "E4",
          "ticks": 1349713,
          "time": 57.24045020614584,
          "velocity": 0.8110236220472441
        },
        {
          "duration": 0.1831684624999994,
          "durationTicks": 4612,
          "midi": 65,
          "name": "F4",
          "ticks": 1354507,
          "time": 57.430846912395836,
          "velocity": 0.7559055118110236
        },
        {
          "duration": 0.1965991206250024,
          "durationTicks": 4935,
          "midi": 67,
          "name": "G4",
          "ticks": 1359406,
          "time": 57.625413759270835,
          "velocity": 0.8031496062992126
        },
        {
          "duration": 0.15649962687499652,
          "durationTicks": 3635,
          "midi": 69,
          "name": "A4",
          "ticks": 1364036,
          "time": 57.80929710302084,
          "velocity": 0.7637795275590551
        },
        {
          "duration": 0.1548375033333329,
          "durationTicks": 3586,
          "midi": 64,
          "name": "E4",
          "ticks": 1364200,
          "time": 57.81592473489584,
          "velocity": 0.7322834645669292
        },
        {
          "duration": 0.1728186683333348,
          "durationTicks": 3387,
          "midi": 64,
          "name": "E4",
          "ticks": 1373658,
          "time": 58.224305411562504,
          "velocity": 0.7716535433070866
        },
        {
          "duration": 0.19406243999999617,
          "durationTicks": 3784,
          "midi": 69,
          "name": "A4",
          "ticks": 1373914,
          "time": 58.236550744895844,
          "velocity": 0.8661417322834646
        },
        {
          "duration": 0.9649570424999965,
          "durationTicks": 19333,
          "midi": 69,
          "name": "A4",
          "ticks": 1383294,
          "time": 58.71760404489584,
          "velocity": 0.8818897637795275
        },
        {
          "duration": 0.914892034999994,
          "durationTicks": 18329,
          "midi": 64,
          "name": "E4",
          "ticks": 1383408,
          "time": 58.723394364895846,
          "velocity": 0.905511811023622
        },
        {
          "duration": 0.1826642475,
          "durationTicks": 3852,
          "midi": 67,
          "name": "G4",
          "ticks": 1402580,
          "time": 59.680332318020845,
          "velocity": 0.6299212598425197
        },
        {
          "duration": 0.16363742906250422,
          "durationTicks": 3727,
          "midi": 64,
          "name": "E4",
          "ticks": 1412172,
          "time": 60.13517337958334,
          "velocity": 0.6299212598425197
        },
        {
          "duration": 0.1891309965625041,
          "durationTicks": 3973,
          "midi": 67,
          "name": "G4",
          "ticks": 1421721,
          "time": 60.55443117677084,
          "velocity": 0.5826771653543307
        },
        {
          "duration": 0.1928183968749977,
          "durationTicks": 4087,
          "midi": 64,
          "name": "E4",
          "ticks": 1431337,
          "time": 61.01243642802085,
          "velocity": 0.5826771653543307
        },
        {
          "duration": 0.20071797625000443,
          "durationTicks": 3769,
          "midi": 62,
          "name": "D4",
          "ticks": 1440884,
          "time": 61.46283032489584,
          "velocity": 0.6141732283464567
        },
        {
          "duration": 0.24936037499999486,
          "durationTicks": 3964,
          "midi": 64,
          "name": "E4",
          "ticks": 1450637,
          "time": 61.98371128739585,
          "velocity": 0.6456692913385826
        },
        {
          "duration": 1.2802922656250075,
          "durationTicks": 19155,
          "midi": 76,
          "name": "E5",
          "ticks": 1517834,
          "time": 66.29709490968752,
          "velocity": 0.4251968503937008
        },
        {
          "duration": 0.6675165156250102,
          "durationTicks": 9987,
          "midi": 79,
          "name": "G5",
          "ticks": 1536966,
          "time": 67.57584988885418,
          "velocity": 0.3779527559055118
        },
        {
          "duration": 0.6240046249999978,
          "durationTicks": 9336,
          "midi": 81,
          "name": "A5",
          "ticks": 1546505,
          "time": 68.21342273781252,
          "velocity": 0.4251968503937008
        },
        {
          "duration": 1.2291497144791634,
          "durationTicks": 18535,
          "midi": 77,
          "name": "F5",
          "ticks": 1556073,
          "time": 68.85293390447919,
          "velocity": 0.4251968503937008
        },
        {
          "duration": 0.5940927542708323,
          "durationTicks": 8959,
          "midi": 76,
          "name": "E5",
          "ticks": 1575380,
          "time": 70.13327678854168,
          "velocity": 0.4094488188976378
        },
        {
          "duration": 0.621413461354166,
          "durationTicks": 9371,
          "midi": 74,
          "name": "D5",
          "ticks": 1585050,
          "time": 70.77451765625001,
          "velocity": 0.4566929133858268
        },
        {
          "duration": 1.2868161515625047,
          "durationTicks": 19539,
          "midi": 76,
          "name": "E5",
          "ticks": 1594617,
          "time": 71.40890567010418,
          "velocity": 0.41732283464566927
        },
        {
          "duration": 0.6154509921875047,
          "durationTicks": 9345,
          "midi": 79,
          "name": "G5",
          "ticks": 1613819,
          "time": 72.67352738781251,
          "velocity": 0.4094488188976378
        },
        {
          "duration": 0.6529268468750047,
          "durationTicks": 9898,
          "midi": 81,
          "name": "A5",
          "ticks": 1623509,
          "time": 73.31169968468751,
          "velocity": 0.41732283464566927
        },
        {
          "duration": 1.3106291882291714,
          "durationTicks": 19203,
          "midi": 74,
          "name": "D5",
          "ticks": 1632908,
          "time": 73.93070705500001,
          "velocity": 0.4251968503937008
        },
        {
          "duration": 1.3626806380208336,
          "durationTicks": 20275,
          "midi": 74,
          "name": "D5",
          "ticks": 1671376,
          "time": 76.55632961645836,
          "velocity": 0.4094488188976378
        },
        {
          "duration": 0.602469506250003,
          "durationTicks": 8964,
          "midi": 77,
          "name": "F5",
          "ticks": 1690565,
          "time": 77.84602030760419,
          "velocity": 0.3779527559055118
        },
        {
          "duration": 0.6004532093750043,
          "durationTicks": 8934,
          "midi": 74,
          "name": "D5",
          "ticks": 1700028,
          "time": 78.48202755187502,
          "velocity": 0.3937007874015748
        },
        {
          "duration": 1.2576954937500062,
          "durationTicks": 19536,
          "midi": 79,
          "name": "G5",
          "ticks": 1709731,
          "time": 79.13416517114585,
          "velocity": 0.3779527559055118
        },
        {
          "duration": 0.6154070749999931,
          "durationTicks": 9560,
          "midi": 77,
          "name": "F5",
          "ticks": 1729050,
          "time": 80.37789169677086,
          "velocity": 0.4015748031496063
        },
        {
          "duration": 0.596610122499996,
          "durationTicks": 9268,
          "midi": 76,
          "name": "E5",
          "ticks": 1738438,
          "time": 80.98222659427086,
          "velocity": 0.41732283464566927
        },
        {
          "duration": 1.2616129865625112,
          "durationTicks": 19113,
          "midi": 74,
          "name": "D5",
          "ticks": 1748035,
          "time": 81.60001547489586,
          "velocity": 0.4094488188976378
        },
        {
          "duration": 0.5912704554166623,
          "durationTicks": 8956,
          "midi": 77,
          "name": "F5",
          "ticks": 1767447,
          "time": 82.8813682857292,
          "velocity": 0.4566929133858268
        },
        {
          "duration": 0.6510551466666641,
          "durationTicks": 9859,
          "midi": 76,
          "name": "E5",
          "ticks": 1777041,
          "time": 83.5147591688542,
          "velocity": 0.4015748031496063
        },
        {
          "duration": 1.2431954993750054,
          "durationTicks": 18687,
          "midi": 79,
          "name": "G5",
          "ticks": 1786569,
          "time": 84.1437937819792,
          "velocity": 0.4015748031496063
        },
        {
          "duration": 0.6395889729166697,
          "durationTicks": 10124,
          "midi": 81,
          "name": "A5",
          "ticks": 1825087,
          "time": 86.70588978989586,
          "velocity": 0.41732283464566927
        },
        {
          "duration": 0.5982090067708299,
          "durationTicks": 9469,
          "midi": 79,
          "name": "G5",
          "ticks": 1834523,
          "time": 87.3020140044792,
          "velocity": 0.4251968503937008
        },
        {
          "duration": 0.5759712234375058,
          "durationTicks": 9117,
          "midi": 77,
          "name": "F5",
          "ticks": 1844173,
          "time": 87.91165778052087,
          "velocity": 0.4251968503937008
        },
        {
          "duration": 0.6336295499999949,
          "durationTicks": 10032,
          "midi": 79,
          "name": "G5",
          "ticks": 1853765,
          "time": 88.5176373763542,
          "velocity": 0.4330708661417323
        },
        {
          "duration": 1.1710255167708254,
          "durationTicks": 18637,
          "midi": 81,
          "name": "A5",
          "ticks": 1863348,
          "time": 89.12304839250004,
          "velocity": 0.4251968503937008
        },
        {
          "duration": 1.1482734557291678,
          "durationTicks": 18275,
          "midi": 74,
          "name": "D5",
          "ticks": 1882645,
          "time": 90.33554370302086,
          "velocity": 0.3937007874015748
        },
        {
          "duration": 0.6188649164583353,
          "durationTicks": 9994,
          "midi": 79,
          "name": "G5",
          "ticks": 1901884,
          "time": 91.54428179395838,
          "velocity": 0.41732283464566927
        },
        {
          "duration": 0.565053268229164,
          "durationTicks": 9125,
          "midi": 77,
          "name": "F5",
          "ticks": 1911308,
          "time": 92.1278502322917,
          "velocity": 0.4330708661417323
        },
        {
          "duration": 1.1260195758333396,
          "durationTicks": 18184,
          "midi": 76,
          "name": "E5",
          "ticks": 1920867,
          "time": 92.71977836281253,
          "velocity": 0.4251968503937008
        },
        {
          "duration": 1.1046460765625028,
          "durationTicks": 18195,
          "midi": 79,
          "name": "G5",
          "ticks": 1940138,
          "time": 93.9131089416667,
          "velocity": 0.4645669291338583
        },
        {
          "duration": 1.1015146800000082,
          "durationTicks": 18144,
          "midi": 76,
          "name": "E5",
          "ticks": 1959340,
          "time": 95.07888956864588,
          "velocity": 0.4251968503937008
        },
        {
          "duration": 1.092104694583341,
          "durationTicks": 17989,
          "midi": 76,
          "name": "E5",
          "ticks": 1978647,
          "time": 96.25100949406254,
          "velocity": 0.4330708661417323
        },
        {
          "duration": 0.5775302662500081,
          "durationTicks": 9513,
          "midi": 79,
          "name": "G5",
          "ticks": 1997756,
          "time": 97.4111089219792,
          "velocity": 0.47244094488188976
        },
        {
          "duration": 0.5518501125000057,
          "durationTicks": 9090,
          "midi": 81,
          "name": "A5",
          "ticks": 2007397,
          "time": 97.99641001489587,
          "velocity": 0.44881889763779526
        },
        {
          "duration": 1.1060690477083313,
          "durationTicks": 18368,
          "midi": 77,
          "name": "F5",
          "ticks": 2016921,
          "time": 98.57460808656255,
          "velocity": 0.44881889763779526
        },
        {
          "duration": 0.6008346243750111,
          "durationTicks": 9978,
          "midi": 76,
          "name": "E5",
          "ticks": 2036195,
          "time": 99.73523277364588,
          "velocity": 0.41732283464566927
        },
        {
          "duration": 0.570786871562504,
          "durationTicks": 9479,
          "midi": 74,
          "name": "D5",
          "ticks": 2045759,
          "time": 100.31113799989588,
          "velocity": 0.4645669291338583
        },
        {
          "duration": 1.2040228608333479,
          "durationTicks": 19200,
          "midi": 76,
          "name": "E5",
          "ticks": 2055414,
          "time": 100.89263999458338,
          "velocity": 0.41732283464566927
        },
        {
          "duration": 0.5887079323958346,
          "durationTicks": 9285,
          "midi": 76,
          "name": "E5",
          "ticks": 2074530,
          "time": 102.09136253833339,
          "velocity": 0.4645669291338583
        },
        {
          "duration": 0.6008445345833309,
          "durationTicks": 9476,
          "midi": 74,
          "name": "D5",
          "ticks": 2084171,
          "time": 102.70264335531256,
          "velocity": 0.41732283464566927
        },
        {
          "duration": 1.3307213127083344,
          "durationTicks": 19291,
          "midi": 76,
          "name": "E5",
          "ticks": 2093847,
          "time": 103.31661524406256,
          "velocity": 0.4645669291338583
        },
        {
          "duration": 0.30793791874999954,
          "durationTicks": 9548,
          "midi": 67,
          "name": "G4",
          "ticks": 2209052,
          "time": 107.6333371102084,
          "velocity": 0.4645669291338583
        },
        {
          "duration": 0.2994235062499939,
          "durationTicks": 9284,
          "midi": 65,
          "name": "F4",
          "ticks": 2218733,
          "time": 107.9455644867709,
          "velocity": 0.48031496062992124
        },
        {
          "duration": 0.31513001718749933,
          "durationTicks": 9771,
          "midi": 62,
          "name": "D4",
          "ticks": 2228285,
          "time": 108.2536314117709,
          "velocity": 0.4881889763779528
        },
        {
          "duration": 0.2981979468749927,
          "durationTicks": 9246,
          "midi": 67,
          "name": "G4",
          "ticks": 2237845,
          "time": 108.5619563492709,
          "velocity": 0.49606299212598426
        },
        {
          "duration": 0.3014876062500065,
          "durationTicks": 9348,
          "midi": 65,
          "name": "F4",
          "ticks": 2247383,
          "time": 108.8695717523959,
          "velocity": 0.4645669291338583
        },
        {
          "duration": 0.296295104687502,
          "durationTicks": 9187,
          "midi": 62,
          "name": "D4",
          "ticks": 2256948,
          "time": 109.1780579477084,
          "velocity": 0.48031496062992124
        },
        {
          "duration": 0.31080830781249347,
          "durationTicks": 9637,
          "midi": 67,
          "name": "G4",
          "ticks": 2266462,
          "time": 109.4848993133334,
          "velocity": 0.48031496062992124
        },
        {
          "duration": 0.29826245000000995,
          "durationTicks": 9248,
          "midi": 65,
          "name": "F4",
          "ticks": 2276146,
          "time": 109.7972234445834,
          "velocity": 0.4409448818897638
        },
        {
          "duration": 0.30348720312500177,
          "durationTicks": 9410,
          "midi": 62,
          "name": "D4",
          "ticks": 2285679,
          "time": 110.1046775898959,
          "velocity": 0.4409448818897638
        },
        {
          "duration": 0.6360975671875053,
          "durationTicks": 19723,
          "midi": 67,
          "name": "G4",
          "ticks": 2295474,
          "time": 110.4205816445834,
          "velocity": 0.4881889763779528
        },
        {
          "duration": 0.29519935041665235,
          "durationTicks": 9836,
          "midi": 64,
          "name": "E4",
          "ticks": 2324043,
          "time": 111.3419765336459,
          "velocity": 0.5275590551181102
        },
        {
          "duration": 0.2848436458333339,
          "durationTicks": 9500,
          "midi": 65,
          "name": "F4",
          "ticks": 2333832,
          "time": 111.63576665760422,
          "velocity": 0.5984251968503937
        },
        {
          "duration": 0.28049603229166564,
          "durationTicks": 9355,
          "midi": 69,
          "name": "A4",
          "ticks": 2343266,
          "time": 111.91863138968756,
          "velocity": 0.6062992125984252
        },
        {
          "duration": 0.27701794145832537,
          "durationTicks": 9239,
          "midi": 65,
          "name": "F4",
          "ticks": 2352995,
          "time": 112.21034126656257,
          "velocity": 0.6377952755905512
        },
        {
          "duration": 0.27827725020833327,
          "durationTicks": 9281,
          "midi": 64,
          "name": "E4",
          "ticks": 2362562,
          "time": 112.49719380968756,
          "velocity": 0.5511811023622047
        },
        {
          "duration": 0.28049603229167985,
          "durationTicks": 9355,
          "midi": 65,
          "name": "F4",
          "ticks": 2372175,
          "time": 112.78542559572922,
          "velocity": 0.6141732283464567
        },
        {
          "duration": 0.28289471562500523,
          "durationTicks": 9435,
          "midi": 69,
          "name": "A4",
          "ticks": 2381871,
          "time": 113.07614601572922,
          "velocity": 0.6299212598425197
        },
        {
          "duration": 0.286582691250004,
          "durationTicks": 9558,
          "midi": 65,
          "name": "F4",
          "ticks": 2391310,
          "time": 113.35916066552089,
          "velocity": 0.6062992125984252
        },
        {
          "duration": 0.2787270033333442,
          "durationTicks": 9296,
          "midi": 64,
          "name": "E4",
          "ticks": 2400871,
          "time": 113.64583330739589,
          "velocity": 0.5984251968503937
        },
        {
          "duration": 0.5876474331249995,
          "durationTicks": 19599,
          "midi": 65,
          "name": "F4",
          "ticks": 2410571,
          "time": 113.93667366156257,
          "velocity": 0.5669291338582677
        },
        {
          "duration": 0.2890413416666604,
          "durationTicks": 9640,
          "midi": 67,
          "name": "G4",
          "ticks": 2439280,
          "time": 114.7974711592709,
          "velocity": 0.5748031496062992
        },
        {
          "duration": 0.28838170375000516,
          "durationTicks": 9618,
          "midi": 65,
          "name": "F4",
          "ticks": 2449026,
          "time": 115.08969075635423,
          "velocity": 0.5748031496062992
        },
        {
          "duration": 0.27821728312498806,
          "durationTicks": 9279,
          "midi": 62,
          "name": "D4",
          "ticks": 2458643,
          "time": 115.37804247656257,
          "velocity": 0.6062992125984252
        },
        {
          "duration": 0.2787569868749955,
          "durationTicks": 9297,
          "midi": 67,
          "name": "G4",
          "ticks": 2468256,
          "time": 115.66627426260423,
          "velocity": 0.5433070866141733
        },
        {
          "duration": 0.2825648966666705,
          "durationTicks": 9424,
          "midi": 65,
          "name": "F4",
          "ticks": 2477674,
          "time": 115.9486592580209,
          "velocity": 0.5748031496062992
        },
        {
          "duration": 0.27650822124999763,
          "durationTicks": 9222,
          "midi": 62,
          "name": "D4",
          "ticks": 2487360,
          "time": 116.23907984260423,
          "velocity": 0.5748031496062992
        },
        {
          "duration": 0.2863128393750003,
          "durationTicks": 9549,
          "midi": 67,
          "name": "G4",
          "ticks": 2496927,
          "time": 116.52593238572923,
          "velocity": 0.5748031496062992
        },
        {
          "duration": 0.28043606520833464,
          "durationTicks": 9353,
          "midi": 65,
          "name": "F4",
          "ticks": 2506507,
          "time": 116.8131747148959,
          "velocity": 0.5433070866141733
        },
        {
          "duration": 0.28703244437500075,
          "durationTicks": 9573,
          "midi": 62,
          "name": "D4",
          "ticks": 2516139,
          "time": 117.10197618822923,
          "velocity": 0.5433070866141733
        },
        {
          "duration": 0.5549353891666726,
          "durationTicks": 18508,
          "midi": 67,
          "name": "G4",
          "ticks": 2525653,
          "time": 117.3872396036459,
          "velocity": 0.5905511811023622
        },
        {
          "duration": 0.278173269375003,
          "durationTicks": 9437,
          "midi": 62,
          "name": "D4",
          "ticks": 2554582,
          "time": 118.25462588052089,
          "velocity": 0.5669291338582677
        },
        {
          "duration": 0.28035455812499777,
          "durationTicks": 9511,
          "midi": 64,
          "name": "E4",
          "ticks": 2564269,
          "time": 118.5401683686459,
          "velocity": 0.6220472440944882
        },
        {
          "duration": 0.28521824249999383,
          "durationTicks": 9676,
          "midi": 67,
          "name": "G4",
          "ticks": 2573700,
          "time": 118.8181647767709,
          "velocity": 0.5590551181102362
        },
        {
          "duration": 0.2901408806250032,
          "durationTicks": 9843,
          "midi": 64,
          "name": "E4",
          "ticks": 2583276,
          "time": 119.1004353317709,
          "velocity": 0.5984251968503937
        },
        {
          "duration": 0.27487185937499703,
          "durationTicks": 9325,
          "midi": 62,
          "name": "D4",
          "ticks": 2592923,
          "time": 119.3847987448959,
          "velocity": 0.6220472440944882
        },
        {
          "duration": 0.273692784375001,
          "durationTicks": 9285,
          "midi": 64,
          "name": "E4",
          "ticks": 2602502,
          "time": 119.6671577305209,
          "velocity": 0.5433070866141733
        },
        {
          "duration": 0.28041351187499686,
          "durationTicks": 9513,
          "midi": 67,
          "name": "G4",
          "ticks": 2612195,
          "time": 119.9528770798959,
          "velocity": 0.6062992125984252
        },
        {
          "duration": 0.2773479168750015,
          "durationTicks": 9409,
          "midi": 64,
          "name": "E4",
          "ticks": 2621671,
          "time": 120.2321999473959,
          "velocity": 0.5905511811023622
        },
        {
          "duration": 0.28966925062499627,
          "durationTicks": 9827,
          "midi": 62,
          "name": "D4",
          "ticks": 2631476,
          "time": 120.5212207067709,
          "velocity": 0.5590551181102362
        },
        {
          "duration": 0.5436420056250029,
          "durationTicks": 18443,
          "midi": 64,
          "name": "E4",
          "ticks": 2640878,
          "time": 120.7983622855209,
          "velocity": 0.5590551181102362
        },
        {
          "duration": 0.2514642479166582,
          "durationTicks": 8550,
          "midi": 69,
          "name": "A4",
          "ticks": 2669729,
          "time": 121.6487996061459,
          "velocity": 0.6220472440944882
        },
        {
          "duration": 0.28404882229166617,
          "durationTicks": 9658,
          "midi": 65,
          "name": "F4",
          "ticks": 2689071,
          "time": 122.21766444322922,
          "velocity": 0.6141732283464567
        },
        {
          "duration": 0.5750679873958404,
          "durationTicks": 19553,
          "midi": 67,
          "name": "G4",
          "ticks": 2698497,
          "time": 122.49488997635423,
          "velocity": 0.6535433070866141
        },
        {
          "duration": 0.27660790781249034,
          "durationTicks": 9405,
          "midi": 64,
          "name": "E4",
          "ticks": 2717669,
          "time": 123.05875247593757,
          "velocity": 0.6220472440944882
        },
        {
          "duration": 0.550186510520831,
          "durationTicks": 18707,
          "midi": 64,
          "name": "E4",
          "ticks": 2727383,
          "time": 123.34444829906256,
          "velocity": 0.5984251968503937
        },
        {
          "duration": 0.26978461864582926,
          "durationTicks": 9173,
          "midi": 65,
          "name": "F4",
          "ticks": 2746565,
          "time": 123.90860490593757,
          "velocity": 0.6299212598425197
        },
        {
          "duration": 0.5487747955208278,
          "durationTicks": 18659,
          "midi": 62,
          "name": "D4",
          "ticks": 2756172,
          "time": 124.19115378104173,
          "velocity": 0.6456692913385826
        },
        {
          "duration": 0.29025448614584093,
          "durationTicks": 9869,
          "midi": 65,
          "name": "F4",
          "ticks": 2794432,
          "time": 125.31640827895839,
          "velocity": 0.5275590551181102
        },
        {
          "duration": 0.2836958935416618,
          "durationTicks": 9646,
          "midi": 62,
          "name": "D4",
          "ticks": 2804165,
          "time": 125.60266290593756,
          "velocity": 0.5275590551181102
        },
        {
          "duration": 0.2781666764583406,
          "durationTicks": 9458,
          "midi": 65,
          "name": "F4",
          "ticks": 2823392,
          "time": 126.16814299562506,
          "velocity": 0.5275590551181102
        },
        {
          "duration": 0.2810195171874881,
          "durationTicks": 9555,
          "midi": 62,
          "name": "D4",
          "ticks": 2833022,
          "time": 126.45136831750007,
          "velocity": 0.5354330708661418
        },
        {
          "duration": 0.2780784442708324,
          "durationTicks": 9455,
          "midi": 64,
          "name": "E4",
          "ticks": 2852168,
          "time": 127.01446613812506,
          "velocity": 0.5511811023622047
        },
        {
          "duration": 0.29016625395833273,
          "durationTicks": 9866,
          "midi": 62,
          "name": "D4",
          "ticks": 2861609,
          "time": 127.29213283218756,
          "velocity": 0.5275590551181102
        },
        {
          "duration": 0.2818430176041602,
          "durationTicks": 9583,
          "midi": 64,
          "name": "E4",
          "ticks": 2880983,
          "time": 127.86193629906256,
          "velocity": 0.5748031496062992
        },
        {
          "duration": 0.2821235222916698,
          "durationTicks": 9600,
          "midi": 62,
          "name": "D4",
          "ticks": 2890745,
          "time": 128.14904383718758,
          "velocity": 0.5433070866141733
        },
        {
          "duration": 0.27617291249998743,
          "durationTicks": 9797,
          "midi": 62,
          "name": "D4",
          "ticks": 2900073,
          "time": 128.42338711885424,
          "velocity": 0.7007874015748031
        },
        {
          "duration": 0.26084104604166214,
          "durationTicks": 9257,
          "midi": 64,
          "name": "E4",
          "ticks": 2909647,
          "time": 128.6932764023959,
          "velocity": 0.7007874015748031
        },
        {
          "duration": 0.27104137645832793,
          "durationTicks": 9619,
          "midi": 65,
          "name": "F4",
          "ticks": 2919306,
          "time": 128.96544488718757,
          "velocity": 0.7165354330708661
        },
        {
          "duration": 0.2591222058333358,
          "durationTicks": 9196,
          "midi": 67,
          "name": "G4",
          "ticks": 2928909,
          "time": 129.23603542031256,
          "velocity": 0.7322834645669292
        },
        {
          "duration": 0.277015050624982,
          "durationTicks": 9831,
          "midi": 65,
          "name": "F4",
          "ticks": 2938664,
          "time": 129.51090896510425,
          "velocity": 0.7480314960629921
        },
        {
          "duration": 0.2723939064583476,
          "durationTicks": 9667,
          "midi": 64,
          "name": "E4",
          "ticks": 2948276,
          "time": 129.78175309760422,
          "velocity": 0.6850393700787402
        },
        {
          "duration": 0.7821568279166513,
          "durationTicks": 27758,
          "midi": 62,
          "name": "D4",
          "ticks": 2957661,
          "time": 130.04620089031258,
          "velocity": 0.7401574803149606
        },
        {
          "duration": 0.5582847999999956,
          "durationTicks": 18560,
          "midi": 67,
          "name": "G4",
          "ticks": 2986611,
          "time": 130.8620292473959,
          "velocity": 0.7401574803149606
        },
        {
          "duration": 0.2916492340625325,
          "durationTicks": 9652,
          "midi": 67,
          "name": "G4",
          "ticks": 3015272,
          "time": 131.72415212739588,
          "velocity": 0.5275590551181102
        },
        {
          "duration": 0.2858907240625115,
          "durationTicks": 9461,
          "midi": 65,
          "name": "F4",
          "ticks": 3024920,
          "time": 132.0156804902084,
          "velocity": 0.6062992125984252
        },
        {
          "duration": 0.29685978999998497,
          "durationTicks": 9824,
          "midi": 64,
          "name": "E4",
          "ticks": 3034549,
          "time": 132.3066478067709,
          "velocity": 0.5748031496062992
        },
        {
          "duration": 0.2796054190625057,
          "durationTicks": 9253,
          "midi": 67,
          "name": "G4",
          "ticks": 3044247,
          "time": 132.5997001523959,
          "velocity": 0.5511811023622047
        },
        {
          "duration": 0.3229302350000012,
          "durationTicks": 9453,
          "midi": 65,
          "name": "F4",
          "ticks": 3053804,
          "time": 132.88863770906255,
          "velocity": 0.5039370078740157
        },
        {
          "duration": 0.3219737083333314,
          "durationTicks": 9425,
          "midi": 64,
          "name": "E4",
          "ticks": 3063291,
          "time": 133.21272944072922,
          "velocity": 0.5275590551181102
        },
        {
          "duration": 0.31917245166667385,
          "durationTicks": 9343,
          "midi": 67,
          "name": "G4",
          "ticks": 3072863,
          "time": 133.53972491406256,
          "velocity": 0.4881889763779528
        },
        {
          "duration": 0.4070033055208171,
          "durationTicks": 9613,
          "midi": 65,
          "name": "F4",
          "ticks": 3082705,
          "time": 133.8770344961459,
          "velocity": 0.47244094488188976
        },
        {
          "duration": 0.5779579010416569,
          "durationTicks": 9700,
          "midi": 64,
          "name": "E4",
          "ticks": 3092120,
          "time": 134.27306274093758,
          "velocity": 0.4566929133858268
        },
        {
          "duration": 1.6830769666666754,
          "durationTicks": 22768,
          "midi": 62,
          "name": "D4",
          "ticks": 3101819,
          "time": 134.85094671906256,
          "velocity": 0.47244094488188976
        },
        {
          "duration": 1.6628960104166595,
          "durationTicks": 22495,
          "midi": 67,
          "name": "G4",
          "ticks": 3101897,
          "time": 134.85671270656258,
          "velocity": 0.4409448818897638
        },
        {
          "duration": 0.2970294041666932,
          "durationTicks": 9282,
          "midi": 67,
          "name": "G4",
          "ticks": 3130526,
          "time": 136.97305188781257,
          "velocity": 0.5039370078740157
        },
        {
          "duration": 0.30077507083331056,
          "durationTicks": 9454,
          "midi": 65,
          "name": "F4",
          "ticks": 3140305,
          "time": 137.28589313989593,
          "velocity": 0.4881889763779528
        },
        {
          "duration": 0.311082995833317,
          "durationTicks": 9778,
          "midi": 62,
          "name": "D4",
          "ticks": 3149751,
          "time": 137.5864136940626,
          "velocity": 0.47244094488188976
        },
        {
          "duration": 0.3142644541666755,
          "durationTicks": 9878,
          "midi": 67,
          "name": "G4",
          "ticks": 3159362,
          "time": 137.89218365447925,
          "velocity": 0.5039370078740157
        },
        {
          "duration": 0.29628921458333934,
          "durationTicks": 9313,
          "midi": 65,
          "name": "F4",
          "ticks": 3168987,
          "time": 138.19839901906258,
          "velocity": 0.4566929133858268
        },
        {
          "duration": 0.29399856458331897,
          "durationTicks": 9241,
          "midi": 62,
          "name": "D4",
          "ticks": 3178557,
          "time": 138.5028645815626,
          "velocity": 0.5039370078740157
        },
        {
          "duration": 0.31315094375000285,
          "durationTicks": 9843,
          "midi": 67,
          "name": "G4",
          "ticks": 3188128,
          "time": 138.8073619586459,
          "velocity": 0.4645669291338583
        },
        {
          "duration": 0.3043064895833254,
          "durationTicks": 9565,
          "midi": 65,
          "name": "F4",
          "ticks": 3197686,
          "time": 139.11144574614593,
          "velocity": 0.4566929133858268
        },
        {
          "duration": 0.30685165624998945,
          "durationTicks": 9645,
          "midi": 62,
          "name": "D4",
          "ticks": 3207427,
          "time": 139.42135160239593,
          "velocity": 0.48031496062992124
        },
        {
          "duration": 0.6214660708333213,
          "durationTicks": 19534,
          "midi": 67,
          "name": "G4",
          "ticks": 3216940,
          "time": 139.72400373364593,
          "velocity": 0.47244094488188976
        },
        {
          "duration": 0.2863808664583303,
          "durationTicks": 9755,
          "midi": 64,
          "name": "E4",
          "ticks": 3245754,
          "time": 140.6407091378126,
          "velocity": 0.49606299212598426
        },
        {
          "duration": 0.27789490968751807,
          "durationTicks": 9467,
          "midi": 65,
          "name": "F4",
          "ticks": 3255366,
          "time": 140.9228923733334,
          "velocity": 0.49606299212598426
        },
        {
          "duration": 0.2874643340624914,
          "durationTicks": 9793,
          "midi": 69,
          "name": "A4",
          "ticks": 3265066,
          "time": 141.20762677958342,
          "velocity": 0.48031496062992124
        },
        {
          "duration": 0.27745459874998346,
          "durationTicks": 9452,
          "midi": 65,
          "name": "F4",
          "ticks": 3274621,
          "time": 141.48810484677094,
          "velocity": 0.5118110236220472
        },
        {
          "duration": 0.2774252446874925,
          "durationTicks": 9451,
          "midi": 64,
          "name": "E4",
          "ticks": 3284204,
          "time": 141.76940482770843,
          "velocity": 0.5275590551181102
        },
        {
          "duration": 0.282855746249993,
          "durationTicks": 9636,
          "midi": 65,
          "name": "F4",
          "ticks": 3293789,
          "time": 142.05076351677093,
          "velocity": 0.5039370078740157
        },
        {
          "duration": 0.283707014062486,
          "durationTicks": 9665,
          "midi": 69,
          "name": "A4",
          "ticks": 3303496,
          "time": 142.33570340145843,
          "velocity": 0.5275590551181102
        },
        {
          "duration": 0.2805954834374802,
          "durationTicks": 9559,
          "midi": 65,
          "name": "F4",
          "ticks": 3313065,
          "time": 142.61659242552093,
          "velocity": 0.49606299212598426
        },
        {
          "duration": 0.2837657221874963,
          "durationTicks": 9667,
          "midi": 64,
          "name": "E4",
          "ticks": 3322610,
          "time": 142.89677695208343,
          "velocity": 0.5039370078740157
        },
        {
          "duration": 0.5637447703124963,
          "durationTicks": 19205,
          "midi": 65,
          "name": "F4",
          "ticks": 3332008,
          "time": 143.17264643145842,
          "velocity": 0.5275590551181102
        },
        {
          "duration": 0.2701800416666629,
          "durationTicks": 9200,
          "midi": 67,
          "name": "G4",
          "ticks": 3361041,
          "time": 144.0248839146876,
          "velocity": 0.5039370078740157
        },
        {
          "duration": 0.2836596763541479,
          "durationTicks": 9659,
          "midi": 65,
          "name": "F4",
          "ticks": 3370555,
          "time": 144.30428531864592,
          "velocity": 0.5354330708661418
        },
        {
          "duration": 0.27455578364583744,
          "durationTicks": 9349,
          "midi": 62,
          "name": "D4",
          "ticks": 3380256,
          "time": 144.58917842562508,
          "velocity": 0.48031496062992124
        },
        {
          "duration": 0.27267627031250186,
          "durationTicks": 9285,
          "midi": 67,
          "name": "G4",
          "ticks": 3389767,
          "time": 144.8684917273959,
          "velocity": 0.5118110236220472
        },
        {
          "duration": 0.28744807041664444,
          "durationTicks": 9788,
          "midi": 65,
          "name": "F4",
          "ticks": 3399264,
          "time": 145.1473938856251,
          "velocity": 0.48031496062992124
        },
        {
          "duration": 0.28148648906250173,
          "durationTicks": 9585,
          "midi": 62,
          "name": "D4",
          "ticks": 3408834,
          "time": 145.42843986375007,
          "velocity": 0.5354330708661418
        },
        {
          "duration": 0.2833660023958373,
          "durationTicks": 9649,
          "midi": 67,
          "name": "G4",
          "ticks": 3418689,
          "time": 145.71785554968758,
          "velocity": 0.48031496062992124
        },
        {
          "duration": 0.28686072249999484,
          "durationTicks": 9768,
          "midi": 65,
          "name": "F4",
          "ticks": 3428188,
          "time": 145.99681644270842,
          "velocity": 0.5354330708661418
        },
        {
          "duration": 0.27957760833331236,
          "durationTicks": 9520,
          "midi": 62,
          "name": "D4",
          "ticks": 3437733,
          "time": 146.2771282359376,
          "velocity": 0.5354330708661418
        },
        {
          "duration": 0.5643532457291656,
          "durationTicks": 19217,
          "midi": 67,
          "name": "G4",
          "ticks": 3447373,
          "time": 146.56022993177092,
          "velocity": 0.4645669291338583
        },
        {
          "duration": 0.27541813041668206,
          "durationTicks": 9650,
          "midi": 62,
          "name": "D4",
          "ticks": 3476139,
          "time": 147.4050124403126,
          "velocity": 0.4881889763779528
        },
        {
          "duration": 0.26101159666669105,
          "durationTicks": 9146,
          "midi": 64,
          "name": "E4",
          "ticks": 3485819,
          "time": 147.68128672072925,
          "velocity": 0.4881889763779528
        },
        {
          "duration": 0.279104899999993,
          "durationTicks": 9780,
          "midi": 67,
          "name": "G4",
          "ticks": 3495382,
          "time": 147.95419880239592,
          "velocity": 0.5433070866141733
        },
        {
          "duration": 0.2666621866666503,
          "durationTicks": 9344,
          "midi": 64,
          "name": "E4",
          "ticks": 3505020,
          "time": 148.2292512590626,
          "velocity": 0.5118110236220472
        },
        {
          "duration": 0.2706004766666581,
          "durationTicks": 9482,
          "midi": 62,
          "name": "D4",
          "ticks": 3514691,
          "time": 148.50524548072926,
          "velocity": 0.5118110236220472
        },
        {
          "duration": 0.2753663783333309,
          "durationTicks": 9649,
          "midi": 64,
          "name": "E4",
          "ticks": 3524141,
          "time": 148.77493273072926,
          "velocity": 0.5039370078740157
        },
        {
          "duration": 0.27699306333335016,
          "durationTicks": 9706,
          "midi": 67,
          "name": "G4",
          "ticks": 3533778,
          "time": 149.04995664906258,
          "velocity": 0.5039370078740157
        },
        {
          "duration": 0.2817304266666554,
          "durationTicks": 9872,
          "midi": 64,
          "name": "E4",
          "ticks": 3543436,
          "time": 149.32557987239593,
          "velocity": 0.49606299212598426
        },
        {
          "duration": 0.2815591966666773,
          "durationTicks": 9866,
          "midi": 62,
          "name": "D4",
          "ticks": 3552922,
          "time": 149.59629450239592,
          "velocity": 0.47244094488188976
        },
        {
          "duration": 0.5381188133333126,
          "durationTicks": 18856,
          "midi": 64,
          "name": "E4",
          "ticks": 3562565,
          "time": 149.87148965072927,
          "velocity": 0.4881889763779528
        },
        {
          "duration": 0.537640775312525,
          "durationTicks": 18495,
          "midi": 69,
          "name": "A4",
          "ticks": 3591325,
          "time": 150.69225211739592,
          "velocity": 0.5984251968503937
        },
        {
          "duration": 0.27250901520832826,
          "durationTicks": 9374,
          "midi": 65,
          "name": "F4",
          "ticks": 3610561,
          "time": 151.25143430302094,
          "velocity": 0.6062992125984252
        },
        {
          "duration": 0.5362386702083484,
          "durationTicks": 18446,
          "midi": 67,
          "name": "G4",
          "ticks": 3620177,
          "time": 151.5309784346876,
          "velocity": 0.5984251968503937
        },
        {
          "duration": 0.27843944395834797,
          "durationTicks": 9578,
          "midi": 64,
          "name": "E4",
          "ticks": 3639231,
          "time": 152.08489210822927,
          "velocity": 0.5905511811023622
        },
        {
          "duration": 0.5674315626041846,
          "durationTicks": 19519,
          "midi": 64,
          "name": "E4",
          "ticks": 3648924,
          "time": 152.36667468604176,
          "velocity": 0.5984251968503937
        },
        {
          "duration": 0.2814046583333436,
          "durationTicks": 9680,
          "midi": 65,
          "name": "F4",
          "ticks": 3668160,
          "time": 152.92587923229178,
          "velocity": 0.5748031496062992
        },
        {
          "duration": 0.537721277395832,
          "durationTicks": 18497,
          "midi": 62,
          "name": "D4",
          "ticks": 3677708,
          "time": 153.20344655437512,
          "velocity": 0.6062992125984252
        },
        {
          "duration": 0.2757751750000068,
          "durationTicks": 9480,
          "midi": 65,
          "name": "F4",
          "ticks": 3716181,
          "time": 154.3218849903126,
          "velocity": 0.5511811023622047
        },
        {
          "duration": 0.27071347874999674,
          "durationTicks": 9306,
          "midi": 62,
          "name": "D4",
          "ticks": 3725862,
          "time": 154.6035072971876,
          "velocity": 0.6062992125984252
        },
        {
          "duration": 0.2866258227083165,
          "durationTicks": 9853,
          "midi": 65,
          "name": "F4",
          "ticks": 3745035,
          "time": 155.1612538615626,
          "velocity": 0.5905511811023622
        },
        {
          "duration": 0.28234956208333983,
          "durationTicks": 9706,
          "midi": 62,
          "name": "D4",
          "ticks": 3754615,
          "time": 155.43993805739595,
          "velocity": 0.5984251968503937
        },
        {
          "duration": 0.2794696314583405,
          "durationTicks": 9607,
          "midi": 64,
          "name": "E4",
          "ticks": 3773877,
          "time": 156.0002736503126,
          "velocity": 0.6377952755905512
        },
        {
          "duration": 0.2733315974999755,
          "durationTicks": 9396,
          "midi": 62,
          "name": "D4",
          "ticks": 3783270,
          "time": 156.27351797718762,
          "velocity": 0.6062992125984252
        },
        {
          "duration": 0.2706552983333381,
          "durationTicks": 9304,
          "midi": 64,
          "name": "E4",
          "ticks": 3802611,
          "time": 156.8361516965626,
          "velocity": 0.6377952755905512
        },
        {
          "duration": 0.2695207802083246,
          "durationTicks": 9265,
          "midi": 62,
          "name": "D4",
          "ticks": 3812182,
          "time": 157.11457408052095,
          "velocity": 0.6456692913385826
        },
        {
          "duration": 0.2769852208333248,
          "durationTicks": 9764,
          "midi": 62,
          "name": "D4",
          "ticks": 3821707,
          "time": 157.39165831489595,
          "velocity": 0.7165354330708661
        },
        {
          "duration": 0.2606325843750028,
          "durationTicks": 9189,
          "midi": 64,
          "name": "E4",
          "ticks": 3831348,
          "time": 157.66515482010428,
          "velocity": 0.6456692913385826
        },
        {
          "duration": 0.27121218541665826,
          "durationTicks": 9562,
          "midi": 65,
          "name": "F4",
          "ticks": 3840975,
          "time": 157.93821063572926,
          "velocity": 0.6692913385826772
        },
        {
          "duration": 0.2641780270833465,
          "durationTicks": 9314,
          "midi": 67,
          "name": "G4",
          "ticks": 3850481,
          "time": 158.2078344628126,
          "velocity": 0.7559055118110236
        },
        {
          "duration": 0.261625308333322,
          "durationTicks": 9224,
          "midi": 65,
          "name": "F4",
          "ticks": 3860098,
          "time": 158.48060664302093,
          "velocity": 0.7559055118110236
        },
        {
          "duration": 0.26681583645833484,
          "durationTicks": 9407,
          "midi": 64,
          "name": "E4",
          "ticks": 3869679,
          "time": 158.75235773572928,
          "velocity": 0.7244094488188977
        },
        {
          "duration": 0.5327731593750116,
          "durationTicks": 19230,
          "midi": 62,
          "name": "D4",
          "ticks": 3879414,
          "time": 159.0284458770834,
          "velocity": 0.6929133858267716
        },
        {
          "duration": 0.05934485739581419,
          "durationTicks": 2073,
          "midi": 67,
          "name": "G4",
          "ticks": 3908021,
          "time": 159.82101175177093,
          "velocity": 0.8188976377952756
        },
        {
          "duration": 0.057968739583344586,
          "durationTicks": 2020,
          "midi": 62,
          "name": "D4",
          "ticks": 3908170,
          "time": 159.82514281958342,
          "velocity": 0.889763779527559
        },
        {
          "duration": 0.059059240625003895,
          "durationTicks": 2058,
          "midi": 62,
          "name": "D4",
          "ticks": 3917735,
          "time": 160.09963341072924,
          "velocity": 0.8661417322834646
        },
        {
          "duration": 0.06086717656248197,
          "durationTicks": 2121,
          "midi": 67,
          "name": "G4",
          "ticks": 3917825,
          "time": 160.10221617635426,
          "velocity": 0.8110236220472441
        },
        {
          "duration": 0.062416835937483484,
          "durationTicks": 2175,
          "midi": 67,
          "name": "G4",
          "ticks": 3927263,
          "time": 160.37306219822926,
          "velocity": 0.8267716535433071
        },
        {
          "duration": 0.06092457135417817,
          "durationTicks": 2123,
          "midi": 62,
          "name": "D4",
          "ticks": 3927321,
          "time": 160.37472664718757,
          "velocity": 0.8267716535433071
        },
        {
          "duration": 0.07119272291663492,
          "durationTicks": 2065,
          "midi": 67,
          "name": "G4",
          "ticks": 3936853,
          "time": 160.64827022427093,
          "velocity": 0.7795275590551181
        },
        {
          "duration": 0.07564982604165493,
          "durationTicks": 2173,
          "midi": 62,
          "name": "D4",
          "ticks": 3937138,
          "time": 160.6574948430209,
          "velocity": 0.8661417322834646
        },
        {
          "duration": 0.07133294687500324,
          "durationTicks": 2049,
          "midi": 67,
          "name": "G4",
          "ticks": 3946546,
          "time": 160.9850206430209,
          "velocity": 0.8267716535433071
        },
        {
          "duration": 0.07523206354167655,
          "durationTicks": 2161,
          "midi": 62,
          "name": "D4",
          "ticks": 3946583,
          "time": 160.98630874406257,
          "velocity": 0.889763779527559
        },
        {
          "duration": 0.07342175937500883,
          "durationTicks": 2109,
          "midi": 67,
          "name": "G4",
          "ticks": 3956090,
          "time": 161.31728108468758,
          "velocity": 0.8188976377952756
        },
        {
          "duration": 0.07282992916668718,
          "durationTicks": 2092,
          "midi": 62,
          "name": "D4",
          "ticks": 3956203,
          "time": 161.3212150148959,
          "velocity": 0.8503937007874016
        },
        {
          "duration": 0.784841752083338,
          "durationTicks": 19598,
          "midi": 64,
          "name": "E4",
          "ticks": 3965752,
          "time": 161.65364952427092,
          "velocity": 0.8267716535433071
        },
        {
          "duration": 0.24480848041665126,
          "durationTicks": 4958,
          "midi": 64,
          "name": "E4",
          "ticks": 3994571,
          "time": 162.80783923322926,
          "velocity": 0.6456692913385826
        },
        {
          "duration": 1.3266960589583334,
          "durationTicks": 26869,
          "midi": 64,
          "name": "E4",
          "ticks": 4023294,
          "time": 164.2260792459376,
          "velocity": 0.4015748031496063
        }
      ],
      "endOfTrackTicks": 4132756
    },
    {
      "channel": 0,
      "controlChanges": {
        "10": [
          {
            "number": 10,
            "ticks": 0,
            "time": 0,
            "value": 0.5039370078740157
          },
          {
            "number": 10,
            "ticks": 20171,
            "time": 0.9110208961458333,
            "value": 0.5039370078740157
          },
          {
            "number": 10,
            "ticks": 1517767,
            "time": 66.29261672739585,
            "value": 0.5039370078740157
          },
          {
            "number": 10,
            "ticks": 2208967,
            "time": 107.6305957273959,
            "value": 0.5039370078740157
          }
        ],
        "91": [
          {
            "number": 91,
            "ticks": 2208967,
            "time": 107.6305957273959,
            "value": 0
          }
        ],
        "93": [
          {
            "number": 93,
            "ticks": 2208967,
            "time": 107.6305957273959,
            "value": 0
          }
        ]
      },
      "pitchBends": [],
      "instrument": {
        "family": "piano",
        "number": 0,
        "name": "acoustic grand piano"
      },
      "name": "Left Hand",
      "notes": [
        {
          "duration": 0.10077115666666658,
          "durationTicks": 2092,
          "midi": 55,
          "name": "G3",
          "ticks": 20105,
          "time": 0.9080276651041667,
          "velocity": 0.4015748031496063
        },
        {
          "duration": 0.08998537843749999,
          "durationTicks": 1998,
          "midi": 60,
          "name": "C4",
          "ticks": 29664,
          "time": 1.369167908958333,
          "velocity": 0.3937007874015748
        },
        {
          "duration": 0.09968501666666651,
          "durationTicks": 2135,
          "midi": 59,
          "name": "B3",
          "ticks": 39348,
          "time": 1.8039664623958331,
          "velocity": 0.36220472440944884
        },
        {
          "duration": 0.0869133480208335,
          "durationTicks": 1895,
          "midi": 60,
          "name": "C4",
          "ticks": 48875,
          "time": 2.2489117790624995,
          "velocity": 0.3937007874015748
        },
        {
          "duration": 0.09516644718749978,
          "durationTicks": 2097,
          "midi": 57,
          "name": "A3",
          "ticks": 58634,
          "time": 2.6961364564583334,
          "velocity": 0.3937007874015748
        },
        {
          "duration": 0.09121601104166643,
          "durationTicks": 2074,
          "midi": 60,
          "name": "C4",
          "ticks": 68065,
          "time": 3.124135866770833,
          "velocity": 0.4015748031496063
        },
        {
          "duration": 0.09725097750000078,
          "durationTicks": 2089,
          "midi": 55,
          "name": "G3",
          "ticks": 77725,
          "time": 3.548439704270833,
          "velocity": 0.41732283464566927
        },
        {
          "duration": 0.0852831672916663,
          "durationTicks": 1893,
          "midi": 60,
          "name": "C4",
          "ticks": 87330,
          "time": 3.9959973492708336,
          "velocity": 0.41732283464566927
        },
        {
          "duration": 0.0922669209375,
          "durationTicks": 2151,
          "midi": 53,
          "name": "F3",
          "ticks": 97089,
          "time": 4.4351550271875,
          "velocity": 0.3937007874015748
        },
        {
          "duration": 0.08057784895833375,
          "durationTicks": 1915,
          "midi": 60,
          "name": "C4",
          "ticks": 106509,
          "time": 4.8392249459375005,
          "velocity": 0.4015748031496063
        },
        {
          "duration": 0.08854006302083306,
          "durationTicks": 1993,
          "midi": 55,
          "name": "G3",
          "ticks": 116183,
          "time": 5.246119658229167,
          "velocity": 0.3937007874015748
        },
        {
          "duration": 0.08951599114583342,
          "durationTicks": 2029,
          "midi": 60,
          "name": "C4",
          "ticks": 125753,
          "time": 5.671271892604167,
          "velocity": 0.3779527559055118
        },
        {
          "duration": 0.09113734427083298,
          "durationTicks": 2047,
          "midi": 57,
          "name": "A3",
          "ticks": 135421,
          "time": 6.097813059270835,
          "velocity": 0.36220472440944884
        },
        {
          "duration": 0.09203292343749947,
          "durationTicks": 2031,
          "midi": 60,
          "name": "C4",
          "ticks": 144915,
          "time": 6.520508685312501,
          "velocity": 0.41732283464566927
        },
        {
          "duration": 0.09089658072916684,
          "durationTicks": 1991,
          "midi": 59,
          "name": "B3",
          "ticks": 154523,
          "time": 6.956044114479168,
          "velocity": 0.4094488188976378
        },
        {
          "duration": 0.08867301999999988,
          "durationTicks": 2148,
          "midi": 60,
          "name": "C4",
          "ticks": 164184,
          "time": 7.397085638229168,
          "velocity": 0.3937007874015748
        },
        {
          "duration": 0.08288982812499945,
          "durationTicks": 1950,
          "midi": 57,
          "name": "A3",
          "ticks": 173809,
          "time": 7.794473169270835,
          "velocity": 0.4566929133858268
        },
        {
          "duration": 0.0775246919791659,
          "durationTicks": 1891,
          "midi": 60,
          "name": "C4",
          "ticks": 183260,
          "time": 8.196212536250002,
          "velocity": 0.44881889763779526
        },
        {
          "duration": 0.09094947916666563,
          "durationTicks": 2150,
          "midi": 59,
          "name": "B3",
          "ticks": 193004,
          "time": 8.595024026979168,
          "velocity": 0.4251968503937008
        },
        {
          "duration": 0.08263142708333326,
          "durationTicks": 1988,
          "midi": 60,
          "name": "C4",
          "ticks": 202610,
          "time": 9.001346149375001,
          "velocity": 0.3937007874015748
        },
        {
          "duration": 0.0825480295833323,
          "durationTicks": 2090,
          "midi": 57,
          "name": "A3",
          "ticks": 212106,
          "time": 9.396048378541668,
          "velocity": 0.41732283464566927
        },
        {
          "duration": 0.08430833239583357,
          "durationTicks": 1965,
          "midi": 60,
          "name": "C4",
          "ticks": 221766,
          "time": 9.777115415416667,
          "velocity": 0.4015748031496063
        },
        {
          "duration": 0.08022300000000016,
          "durationTicks": 1936,
          "midi": 59,
          "name": "B3",
          "ticks": 231463,
          "time": 10.193037849895834,
          "velocity": 0.4330708661417323
        },
        {
          "duration": 0.0872763283333331,
          "durationTicks": 2124,
          "midi": 60,
          "name": "C4",
          "ticks": 240951,
          "time": 10.586196849895835,
          "velocity": 0.41732283464566927
        },
        {
          "duration": 0.09469392875000082,
          "durationTicks": 2076,
          "midi": 55,
          "name": "G3",
          "ticks": 250636,
          "time": 10.984451191458334,
          "velocity": 0.41732283464566927
        },
        {
          "duration": 0.09006976729166638,
          "durationTicks": 2103,
          "midi": 59,
          "name": "B3",
          "ticks": 260013,
          "time": 11.4121703484375,
          "velocity": 0.4330708661417323
        },
        {
          "duration": 0.09817589468750043,
          "durationTicks": 2127,
          "midi": 57,
          "name": "A3",
          "ticks": 269796,
          "time": 11.829581402291668,
          "velocity": 0.4094488188976378
        },
        {
          "duration": 0.0841411799999996,
          "durationTicks": 2023,
          "midi": 59,
          "name": "B3",
          "ticks": 279203,
          "time": 12.263780105312502,
          "velocity": 0.4409448818897638
        },
        {
          "duration": 0.08415533437499967,
          "durationTicks": 1962,
          "midi": 55,
          "name": "G3",
          "ticks": 288850,
          "time": 12.661950668645835,
          "velocity": 0.44881889763779526
        },
        {
          "duration": 0.09116132499999985,
          "durationTicks": 2120,
          "midi": 59,
          "name": "B3",
          "ticks": 298426,
          "time": 13.073512761770834,
          "velocity": 0.3937007874015748
        },
        {
          "duration": 0.08638825562499974,
          "durationTicks": 2009,
          "midi": 57,
          "name": "A3",
          "ticks": 308083,
          "time": 13.488769797395834,
          "velocity": 0.4409448818897638
        },
        {
          "duration": 0.08600124999999892,
          "durationTicks": 2000,
          "midi": 59,
          "name": "B3",
          "ticks": 317753,
          "time": 13.904585841145835,
          "velocity": 0.4409448818897638
        },
        {
          "duration": 0.08946398187499938,
          "durationTicks": 2131,
          "midi": 55,
          "name": "G3",
          "ticks": 327316,
          "time": 14.315800818020834,
          "velocity": 0.5275590551181102
        },
        {
          "duration": 0.08118715781250074,
          "durationTicks": 1935,
          "midi": 59,
          "name": "B3",
          "ticks": 337068,
          "time": 14.725020525833333,
          "velocity": 0.49606299212598426
        },
        {
          "duration": 0.08987229562499977,
          "durationTicks": 2142,
          "midi": 57,
          "name": "A3",
          "ticks": 346587,
          "time": 15.124410993645833,
          "velocity": 0.5511811023622047
        },
        {
          "duration": 0.08055780000000112,
          "durationTicks": 1920,
          "midi": 59,
          "name": "B3",
          "ticks": 356216,
          "time": 15.528416752083332,
          "velocity": 0.5433070866141733
        },
        {
          "duration": 0.08509368895833447,
          "durationTicks": 1987,
          "midi": 55,
          "name": "G3",
          "ticks": 365786,
          "time": 15.929963528854167,
          "velocity": 0.5590551181102362
        },
        {
          "duration": 0.08260982687500018,
          "durationTicks": 1929,
          "midi": 59,
          "name": "B3",
          "ticks": 375530,
          "time": 16.347252358854167,
          "velocity": 0.5748031496062992
        },
        {
          "duration": 0.09126051895833598,
          "durationTicks": 2131,
          "midi": 57,
          "name": "A3",
          "ticks": 385135,
          "time": 16.75858848489583,
          "velocity": 0.5275590551181102
        },
        {
          "duration": 0.0888623072916701,
          "durationTicks": 2075,
          "midi": 59,
          "name": "B3",
          "ticks": 394640,
          "time": 17.165642090104164,
          "velocity": 0.5748031496062992
        },
        {
          "duration": 0.09066096604166773,
          "durationTicks": 2117,
          "midi": 55,
          "name": "G3",
          "ticks": 404115,
          "time": 17.5714109390625,
          "velocity": 0.5354330708661418
        },
        {
          "duration": 0.08864818125000085,
          "durationTicks": 2070,
          "midi": 59,
          "name": "B3",
          "ticks": 413809,
          "time": 17.98655850864583,
          "velocity": 0.49606299212598426
        },
        {
          "duration": 0.08907643333333581,
          "durationTicks": 2080,
          "midi": 57,
          "name": "A3",
          "ticks": 423486,
          "time": 18.4009780496875,
          "velocity": 0.5275590551181102
        },
        {
          "duration": 0.09121769375,
          "durationTicks": 2130,
          "midi": 59,
          "name": "B3",
          "ticks": 432918,
          "time": 18.8049054146875,
          "velocity": 0.49606299212598426
        },
        {
          "duration": 0.09027698062499923,
          "durationTicks": 2106,
          "midi": 55,
          "name": "G3",
          "ticks": 442731,
          "time": 19.225155966145834,
          "velocity": 0.5748031496062992
        },
        {
          "duration": 0.09061991312499984,
          "durationTicks": 2114,
          "midi": 59,
          "name": "B3",
          "ticks": 452141,
          "time": 19.628530319270833,
          "velocity": 0.49606299212598426
        },
        {
          "duration": 0.08273246562499992,
          "durationTicks": 1930,
          "midi": 57,
          "name": "A3",
          "ticks": 461773,
          "time": 20.041421049270834,
          "velocity": 0.4645669291338583
        },
        {
          "duration": 0.08406132906250008,
          "durationTicks": 1961,
          "midi": 59,
          "name": "B3",
          "ticks": 471373,
          "time": 20.452940049270833,
          "velocity": 0.44881889763779526
        },
        {
          "duration": 0.08557179791666769,
          "durationTicks": 2140,
          "midi": 53,
          "name": "F3",
          "ticks": 480883,
          "time": 20.860601058645834,
          "velocity": 0.3700787401574803
        },
        {
          "duration": 0.08436315666666871,
          "durationTicks": 2116,
          "midi": 60,
          "name": "C4",
          "ticks": 490641,
          "time": 21.249896168229167,
          "velocity": 0.3858267716535433
        },
        {
          "duration": 0.07806382833333103,
          "durationTicks": 1958,
          "midi": 55,
          "name": "G3",
          "ticks": 500164,
          "time": 21.629570242395836,
          "velocity": 0.4251968503937008
        },
        {
          "duration": 0.07702722999999878,
          "durationTicks": 1932,
          "midi": 60,
          "name": "C4",
          "ticks": 509808,
          "time": 22.01406848572917,
          "velocity": 0.3700787401574803
        },
        {
          "duration": 0.08146823302083206,
          "durationTicks": 2050,
          "midi": 57,
          "name": "A3",
          "ticks": 519346,
          "time": 22.394340597395836,
          "velocity": 0.3700787401574803
        },
        {
          "duration": 0.0785247991666651,
          "durationTicks": 1976,
          "midi": 60,
          "name": "C4",
          "ticks": 528885,
          "time": 22.773416229687502,
          "velocity": 0.3779527559055118
        },
        {
          "duration": 0.08472412541666685,
          "durationTicks": 2132,
          "midi": 59,
          "name": "B3",
          "ticks": 538633,
          "time": 23.160794641770835,
          "velocity": 0.4015748031496063
        },
        {
          "duration": 0.07322983937499927,
          "durationTicks": 1918,
          "midi": 60,
          "name": "C4",
          "ticks": 548207,
          "time": 23.541196062395834,
          "velocity": 0.4409448818897638
        },
        {
          "duration": 0.08590922937499812,
          "durationTicks": 2002,
          "midi": 55,
          "name": "G3",
          "ticks": 557625,
          "time": 23.900778245520833,
          "velocity": 0.4645669291338583
        },
        {
          "duration": 0.09061348750000064,
          "durationTicks": 2094,
          "midi": 60,
          "name": "C4",
          "ticks": 567428,
          "time": 24.3242594978125,
          "velocity": 0.48031496062992124
        },
        {
          "duration": 0.08650256041666893,
          "durationTicks": 1999,
          "midi": 59,
          "name": "B3",
          "ticks": 576931,
          "time": 24.73548202489583,
          "velocity": 0.41732283464566927
        },
        {
          "duration": 0.09139240000000015,
          "durationTicks": 2112,
          "midi": 57,
          "name": "A3",
          "ticks": 586582,
          "time": 25.15310894364583,
          "velocity": 0.4566929133858268
        },
        {
          "duration": 0.09185026812500041,
          "durationTicks": 2118,
          "midi": 55,
          "name": "G3",
          "ticks": 596122,
          "time": 25.56593256864583,
          "velocity": 0.4566929133858268
        },
        {
          "duration": 0.08959940708333036,
          "durationTicks": 2066,
          "midi": 60,
          "name": "C4",
          "ticks": 605751,
          "time": 25.983523953229167,
          "velocity": 0.4015748031496063
        },
        {
          "duration": 0.0824002291666659,
          "durationTicks": 1900,
          "midi": 59,
          "name": "B3",
          "ticks": 615332,
          "time": 26.399037950937497,
          "velocity": 0.3937007874015748
        },
        {
          "duration": 0.0929821533333346,
          "durationTicks": 2144,
          "midi": 57,
          "name": "A3",
          "ticks": 625010,
          "time": 26.818758697187498,
          "velocity": 0.4094488188976378
        },
        {
          "duration": 0.08543602708333253,
          "durationTicks": 1970,
          "midi": 55,
          "name": "G3",
          "ticks": 634518,
          "time": 27.231106791354165,
          "velocity": 0.4409448818897638
        },
        {
          "duration": 0.08981624979166725,
          "durationTicks": 2071,
          "midi": 53,
          "name": "F3",
          "ticks": 644090,
          "time": 27.646230472187497,
          "velocity": 0.3937007874015748
        },
        {
          "duration": 0.09163772854166652,
          "durationTicks": 2113,
          "midi": 60,
          "name": "C4",
          "ticks": 653664,
          "time": 28.061440890104166,
          "velocity": 0.5039370078740157
        },
        {
          "duration": 0.08248696625000207,
          "durationTicks": 1902,
          "midi": 57,
          "name": "A3",
          "ticks": 663291,
          "time": 28.478949840729165,
          "velocity": 0.41732283464566927
        },
        {
          "duration": 0.08582657312500075,
          "durationTicks": 2007,
          "midi": 55,
          "name": "G3",
          "ticks": 672964,
          "time": 28.89845374427083,
          "velocity": 0.6692913385826772
        },
        {
          "duration": 0.08150572208333173,
          "durationTicks": 1906,
          "midi": 59,
          "name": "B3",
          "ticks": 672999,
          "time": 28.8999522565625,
          "velocity": 0.6299212598425197
        },
        {
          "duration": 0.08385767104166675,
          "durationTicks": 1961,
          "midi": 55,
          "name": "G3",
          "ticks": 682462,
          "time": 29.304615765520833,
          "velocity": 0.6692913385826772
        },
        {
          "duration": 0.09189706020833555,
          "durationTicks": 2149,
          "midi": 59,
          "name": "B3",
          "ticks": 682650,
          "time": 29.312655154687498,
          "velocity": 0.6456692913385826
        },
        {
          "duration": 0.5033020597916682,
          "durationTicks": 11735,
          "midi": 55,
          "name": "G3",
          "ticks": 692053,
          "time": 29.714752901145832,
          "velocity": 0.7086614173228346
        },
        {
          "duration": 0.4724356447916698,
          "durationTicks": 11015,
          "midi": 59,
          "name": "B3",
          "ticks": 692231,
          "time": 29.722372823229165,
          "velocity": 0.5984251968503937
        },
        {
          "duration": 0.08930333854166861,
          "durationTicks": 2050,
          "midi": 55,
          "name": "G3",
          "ticks": 711442,
          "time": 30.546387045208334,
          "velocity": 0.6456692913385826
        },
        {
          "duration": 0.08930333854166861,
          "durationTicks": 2050,
          "midi": 60,
          "name": "C4",
          "ticks": 720923,
          "time": 30.9594040953125,
          "velocity": 0.5118110236220472
        },
        {
          "duration": 0.091002280104167,
          "durationTicks": 2089,
          "midi": 59,
          "name": "B3",
          "ticks": 730525,
          "time": 31.377692220520835,
          "velocity": 0.5039370078740157
        },
        {
          "duration": 0.08255113489583366,
          "durationTicks": 1895,
          "midi": 60,
          "name": "C4",
          "ticks": 740278,
          "time": 31.802558298958335,
          "velocity": 0.5196850393700787
        },
        {
          "duration": 0.09017459062499711,
          "durationTicks": 2070,
          "midi": 57,
          "name": "A3",
          "ticks": 749703,
          "time": 32.21313584322917,
          "velocity": 0.5354330708661418
        },
        {
          "duration": 0.08298676093750146,
          "durationTicks": 1905,
          "midi": 60,
          "name": "C4",
          "ticks": 759375,
          "time": 32.634473350729166,
          "velocity": 0.44881889763779526
        },
        {
          "duration": 0.08985037229167148,
          "durationTicks": 2087,
          "midi": 55,
          "name": "G3",
          "ticks": 768891,
          "time": 33.049015091979165,
          "velocity": 0.4330708661417323
        },
        {
          "duration": 0.0908429268749984,
          "durationTicks": 2111,
          "midi": 60,
          "name": "C4",
          "ticks": 778554,
          "time": 33.46488441927084,
          "velocity": 0.4330708661417323
        },
        {
          "duration": 0.08456009062499703,
          "durationTicks": 1965,
          "midi": 53,
          "name": "F3",
          "ticks": 788158,
          "time": 33.87817455177084,
          "velocity": 0.4566929133858268
        },
        {
          "duration": 0.08275269937499985,
          "durationTicks": 1923,
          "midi": 60,
          "name": "C4",
          "ticks": 797638,
          "time": 34.286128576770835,
          "velocity": 0.4409448818897638
        },
        {
          "duration": 0.09002529749999866,
          "durationTicks": 2092,
          "midi": 55,
          "name": "G3",
          "ticks": 807340,
          "time": 34.70363595552084,
          "velocity": 0.4409448818897638
        },
        {
          "duration": 0.09144539062499746,
          "durationTicks": 2125,
          "midi": 60,
          "name": "C4",
          "ticks": 816992,
          "time": 35.11899167802084,
          "velocity": 0.4251968503937008
        },
        {
          "duration": 0.0870990449999951,
          "durationTicks": 2024,
          "midi": 57,
          "name": "A3",
          "ticks": 826535,
          "time": 35.52965678989584,
          "velocity": 0.44881889763779526
        },
        {
          "duration": 0.08154777187499462,
          "durationTicks": 1895,
          "midi": 60,
          "name": "C4",
          "ticks": 836165,
          "time": 35.94406578364584,
          "velocity": 0.4409448818897638
        },
        {
          "duration": 0.0890743841666648,
          "durationTicks": 2096,
          "midi": 59,
          "name": "B3",
          "ticks": 845716,
          "time": 36.35507516052084,
          "velocity": 0.4330708661417323
        },
        {
          "duration": 0.08683721083333751,
          "durationTicks": 2044,
          "midi": 60,
          "name": "C4",
          "ticks": 855426,
          "time": 36.7676224034375,
          "velocity": 0.3858267716535433
        },
        {
          "duration": 0.07899070531249919,
          "durationTicks": 1932,
          "midi": 57,
          "name": "A3",
          "ticks": 864856,
          "time": 37.168246130520835,
          "velocity": 0.3937007874015748
        },
        {
          "duration": 0.07994452083332959,
          "durationTicks": 1960,
          "midi": 60,
          "name": "C4",
          "ticks": 874653,
          "time": 37.5680346196875,
          "velocity": 0.36220472440944884
        },
        {
          "duration": 0.08622587604166654,
          "durationTicks": 2114,
          "midi": 59,
          "name": "B3",
          "ticks": 884119,
          "time": 37.954134024895836,
          "velocity": 0.3937007874015748
        },
        {
          "duration": 0.07729329947916597,
          "durationTicks": 1895,
          "midi": 60,
          "name": "C4",
          "ticks": 893733,
          "time": 38.3462700571875,
          "velocity": 0.36220472440944884
        },
        {
          "duration": 0.08582836395833482,
          "durationTicks": 2110,
          "midi": 57,
          "name": "A3",
          "ticks": 903241,
          "time": 38.73408255927083,
          "velocity": 0.3543307086614173
        },
        {
          "duration": 0.08068907333333186,
          "durationTicks": 1984,
          "midi": 60,
          "name": "C4",
          "ticks": 913042,
          "time": 39.13270309208333,
          "velocity": 0.4094488188976378
        },
        {
          "duration": 0.07706945260416376,
          "durationTicks": 1895,
          "midi": 59,
          "name": "B3",
          "ticks": 922514,
          "time": 39.51792834541667,
          "velocity": 0.4094488188976378
        },
        {
          "duration": 0.07934696677083508,
          "durationTicks": 1951,
          "midi": 60,
          "name": "C4",
          "ticks": 932123,
          "time": 39.90872537447917,
          "velocity": 0.3779527559055118
        },
        {
          "duration": 0.09147514562499737,
          "durationTicks": 2118,
          "midi": 55,
          "name": "G3",
          "ticks": 941629,
          "time": 40.295333404270835,
          "velocity": 0.4094488188976378
        },
        {
          "duration": 0.08226340499999907,
          "durationTicks": 1897,
          "midi": 59,
          "name": "B3",
          "ticks": 951489,
          "time": 40.72254037989583,
          "velocity": 0.4330708661417323
        },
        {
          "duration": 0.09180370500000379,
          "durationTicks": 2117,
          "midi": 57,
          "name": "A3",
          "ticks": 960841,
          "time": 41.12808985989583,
          "velocity": 0.3937007874015748
        },
        {
          "duration": 0.08278378499999661,
          "durationTicks": 1909,
          "midi": 59,
          "name": "B3",
          "ticks": 970583,
          "time": 41.55055168989583,
          "velocity": 0.4566929133858268
        },
        {
          "duration": 0.08158458625000264,
          "durationTicks": 1897,
          "midi": 55,
          "name": "G3",
          "ticks": 980148,
          "time": 41.965337914895834,
          "velocity": 0.4566929133858268
        },
        {
          "duration": 0.0834698743750053,
          "durationTicks": 1941,
          "midi": 59,
          "name": "B3",
          "ticks": 989832,
          "time": 42.381791080104165,
          "velocity": 0.4251968503937008
        },
        {
          "duration": 0.09172655437500055,
          "durationTicks": 2133,
          "midi": 57,
          "name": "A3",
          "ticks": 999506,
          "time": 42.7978073421875,
          "velocity": 0.4251968503937008
        },
        {
          "duration": 0.0910384977083325,
          "durationTicks": 2117,
          "midi": 59,
          "name": "B3",
          "ticks": 1008937,
          "time": 43.203373743645834,
          "velocity": 0.41732283464566927
        },
        {
          "duration": 0.08302309385416606,
          "durationTicks": 1989,
          "midi": 55,
          "name": "G3",
          "ticks": 1018443,
          "time": 43.61216541072917,
          "velocity": 0.5905511811023622
        },
        {
          "duration": 0.0819396878125005,
          "durationTicks": 1967,
          "midi": 59,
          "name": "B3",
          "ticks": 1028021,
          "time": 44.01132490052083,
          "velocity": 0.6299212598425197
        },
        {
          "duration": 0.08797998000000007,
          "durationTicks": 2112,
          "midi": 57,
          "name": "A3",
          "ticks": 1037914,
          "time": 44.42343945645833,
          "velocity": 0.6062992125984252
        },
        {
          "duration": 0.08797998000000007,
          "durationTicks": 2112,
          "midi": 59,
          "name": "B3",
          "ticks": 1047395,
          "time": 44.81839125114583,
          "velocity": 0.6299212598425197
        },
        {
          "duration": 0.09134123833332808,
          "durationTicks": 2089,
          "midi": 55,
          "name": "G3",
          "ticks": 1056857,
          "time": 45.212551559270835,
          "velocity": 0.5511811023622047
        },
        {
          "duration": 0.08829334041666215,
          "durationTicks": 2014,
          "midi": 59,
          "name": "B3",
          "ticks": 1066603,
          "time": 45.63957408239583,
          "velocity": 0.4330708661417323
        },
        {
          "duration": 0.0905730095833377,
          "durationTicks": 2066,
          "midi": 57,
          "name": "A3",
          "ticks": 1076184,
          "time": 46.05960312635416,
          "velocity": 0.3937007874015748
        },
        {
          "duration": 0.08386552145833548,
          "durationTicks": 1913,
          "midi": 59,
          "name": "B3",
          "ticks": 1085777,
          "time": 46.4801582478125,
          "velocity": 0.4015748031496063
        },
        {
          "duration": 0.08791461531249922,
          "durationTicks": 2087,
          "midi": 55,
          "name": "G3",
          "ticks": 1095271,
          "time": 46.89637322989583,
          "velocity": 0.6141732283464567
        },
        {
          "duration": 0.08446275468750031,
          "durationTicks": 2009,
          "midi": 59,
          "name": "B3",
          "ticks": 1104976,
          "time": 47.30456522958333,
          "velocity": 0.5748031496062992
        },
        {
          "duration": 0.08240268750000013,
          "durationTicks": 1960,
          "midi": 57,
          "name": "A3",
          "ticks": 1114598,
          "time": 47.709095157708326,
          "velocity": 0.5748031496062992
        },
        {
          "duration": 0.08631261093749742,
          "durationTicks": 2053,
          "midi": 59,
          "name": "B3",
          "ticks": 1124219,
          "time": 48.11358304364583,
          "velocity": 0.6377952755905512
        },
        {
          "duration": 0.09094597447916897,
          "durationTicks": 2131,
          "midi": 55,
          "name": "G3",
          "ticks": 1133794,
          "time": 48.51615414520833,
          "velocity": 0.3937007874015748
        },
        {
          "duration": 0.08420291302083882,
          "durationTicks": 1973,
          "midi": 59,
          "name": "B3",
          "ticks": 1143403,
          "time": 48.92624324364583,
          "velocity": 0.4409448818897638
        },
        {
          "duration": 0.08330668333333335,
          "durationTicks": 1952,
          "midi": 57,
          "name": "A3",
          "ticks": 1153125,
          "time": 49.34115491135417,
          "velocity": 0.41732283464566927
        },
        {
          "duration": 0.09175684895833314,
          "durationTicks": 2150,
          "midi": 59,
          "name": "B3",
          "ticks": 1162552,
          "time": 49.74347668583333,
          "velocity": 0.3937007874015748
        },
        {
          "duration": 0.07636275833333173,
          "durationTicks": 1924,
          "midi": 53,
          "name": "F3",
          "ticks": 1172306,
          "time": 50.159338701979166,
          "velocity": 0.49606299212598426
        },
        {
          "duration": 0.08489601875000119,
          "durationTicks": 2139,
          "midi": 60,
          "name": "C4",
          "ticks": 1181726,
          "time": 50.53321457697917,
          "velocity": 0.5039370078740157
        },
        {
          "duration": 0.08406253749999593,
          "durationTicks": 2118,
          "midi": 55,
          "name": "G3",
          "ticks": 1191438,
          "time": 50.918679810312504,
          "velocity": 0.4566929133858268
        },
        {
          "duration": 0.07846630625000017,
          "durationTicks": 1977,
          "midi": 60,
          "name": "C4",
          "ticks": 1201014,
          "time": 51.2987472603125,
          "velocity": 0.5039370078740157
        },
        {
          "duration": 0.08093998895833465,
          "durationTicks": 2045,
          "midi": 57,
          "name": "A3",
          "ticks": 1210468,
          "time": 51.67397258114583,
          "velocity": 0.4881889763779528
        },
        {
          "duration": 0.08049321937500054,
          "durationTicks": 2034,
          "midi": 60,
          "name": "C4",
          "ticks": 1220084,
          "time": 52.05452622,
          "velocity": 0.5196850393700787
        },
        {
          "duration": 0.07929831635416917,
          "durationTicks": 1901,
          "midi": 59,
          "name": "B3",
          "ticks": 1229718,
          "time": 52.43578073104167,
          "velocity": 0.4881889763779528
        },
        {
          "duration": 0.08266406687499739,
          "durationTicks": 1979,
          "midi": 60,
          "name": "C4",
          "ticks": 1239425,
          "time": 52.84114054614584,
          "velocity": 0.5511811023622047
        },
        {
          "duration": 0.1969776166666719,
          "durationTicks": 4960,
          "midi": 53,
          "name": "F3",
          "ticks": 1249003,
          "time": 53.241145526145836,
          "velocity": 0.4330708661417323
        },
        {
          "duration": 0.188359845937498,
          "durationTicks": 4743,
          "midi": 55,
          "name": "G3",
          "ticks": 1253852,
          "time": 53.43371497437501,
          "velocity": 0.5433070866141733
        },
        {
          "duration": 0.1758104655208328,
          "durationTicks": 4427,
          "midi": 57,
          "name": "A3",
          "ticks": 1258577,
          "time": 53.621359982187506,
          "velocity": 0.5984251968503937
        },
        {
          "duration": 0.1780344063541648,
          "durationTicks": 4483,
          "midi": 59,
          "name": "B3",
          "ticks": 1263371,
          "time": 53.8117452028125,
          "velocity": 0.5748031496062992
        },
        {
          "duration": 0.3958217551041656,
          "durationTicks": 9967,
          "midi": 60,
          "name": "C4",
          "ticks": 1268221,
          "time": 54.00435436427084,
          "velocity": 0.5433070866141733
        },
        {
          "duration": 0.4018534909374978,
          "durationTicks": 10119,
          "midi": 59,
          "name": "B3",
          "ticks": 1277908,
          "time": 54.38905641520834,
          "velocity": 0.5196850393700787
        },
        {
          "duration": 0.18753212677083297,
          "durationTicks": 4723,
          "midi": 53,
          "name": "F3",
          "ticks": 1287395,
          "time": 54.76581562197917,
          "velocity": 0.5984251968503937
        },
        {
          "duration": 0.18050413895833373,
          "durationTicks": 4546,
          "midi": 55,
          "name": "G3",
          "ticks": 1292012,
          "time": 54.94913889729167,
          "velocity": 0.5433070866141733
        },
        {
          "duration": 0.19313069333333743,
          "durationTicks": 4864,
          "midi": 57,
          "name": "A3",
          "ticks": 1296955,
          "time": 55.145406376145836,
          "velocity": 0.5669291338582677
        },
        {
          "duration": 0.19027185083333364,
          "durationTicks": 4792,
          "midi": 59,
          "name": "B3",
          "ticks": 1301694,
          "time": 55.333573801250004,
          "velocity": 0.5669291338582677
        },
        {
          "duration": 0.3880878693749992,
          "durationTicks": 9774,
          "midi": 60,
          "name": "C4",
          "ticks": 1306676,
          "time": 55.53138981979167,
          "velocity": 0.5433070866141733
        },
        {
          "duration": 0.39007569812499554,
          "durationTicks": 9824,
          "midi": 59,
          "name": "B3",
          "ticks": 1316209,
          "time": 55.90990850802084,
          "velocity": 0.6456692913385826
        },
        {
          "duration": 0.19631433437500334,
          "durationTicks": 4943,
          "midi": 53,
          "name": "F3",
          "ticks": 1325820,
          "time": 56.291524778020836,
          "velocity": 0.6220472440944882
        },
        {
          "duration": 0.19575831562500667,
          "durationTicks": 4929,
          "midi": 55,
          "name": "G3",
          "ticks": 1330633,
          "time": 56.48267608114583,
          "velocity": 0.6220472440944882
        },
        {
          "duration": 0.19976959374999836,
          "durationTicks": 5030,
          "midi": 57,
          "name": "A3",
          "ticks": 1335437,
          "time": 56.673469943645834,
          "velocity": 0.5984251968503937
        },
        {
          "duration": 0.18181813125000446,
          "durationTicks": 4578,
          "midi": 59,
          "name": "B3",
          "ticks": 1340310,
          "time": 56.86700418427083,
          "velocity": 0.6220472440944882
        },
        {
          "duration": 0.37987995312499834,
          "durationTicks": 9565,
          "midi": 60,
          "name": "C4",
          "ticks": 1345071,
          "time": 57.05609027489584,
          "velocity": 0.6771653543307087
        },
        {
          "duration": 0.37340630624999704,
          "durationTicks": 9402,
          "midi": 59,
          "name": "B3",
          "ticks": 1354540,
          "time": 57.43215752802084,
          "velocity": 0.6850393700787402
        },
        {
          "duration": 0.15384440166666735,
          "durationTicks": 3563,
          "midi": 57,
          "name": "A3",
          "ticks": 1364226,
          "time": 57.8170473715625,
          "velocity": 0.6692913385826772
        },
        {
          "duration": 0.14939703333333654,
          "durationTicks": 3460,
          "midi": 60,
          "name": "C4",
          "ticks": 1364237,
          "time": 57.81752233322917,
          "velocity": 0.6692913385826772
        },
        {
          "duration": 0.1800639366666701,
          "durationTicks": 3518,
          "midi": 57,
          "name": "A3",
          "ticks": 1373723,
          "time": 58.22711200322917,
          "velocity": 0.7007874015748031
        },
        {
          "duration": 0.18467446833333412,
          "durationTicks": 3603,
          "midi": 60,
          "name": "C4",
          "ticks": 1373754,
          "time": 58.22845053156251,
          "velocity": 0.7401574803149606
        },
        {
          "duration": 0.9281707950000069,
          "durationTicks": 18595,
          "midi": 60,
          "name": "C4",
          "ticks": 1383366,
          "time": 58.72129656489584,
          "velocity": 0.7401574803149606
        },
        {
          "duration": 0.9581759331249984,
          "durationTicks": 19200,
          "midi": 57,
          "name": "A3",
          "ticks": 1383444,
          "time": 58.725191304895844,
          "velocity": 0.8346456692913385
        },
        {
          "duration": 0.9077851734375031,
          "durationTicks": 19850,
          "midi": 57,
          "name": "A3",
          "ticks": 1402532,
          "time": 59.67796882489584,
          "velocity": 0.5275590551181102
        },
        {
          "duration": 0.8826910114583271,
          "durationTicks": 18615,
          "midi": 59,
          "name": "B3",
          "ticks": 1421781,
          "time": 60.557117913437516,
          "velocity": 0.5118110236220472
        },
        {
          "duration": 1.1165286006250028,
          "durationTicks": 19200,
          "midi": 60,
          "name": "C4",
          "ticks": 1440974,
          "time": 61.46711959302085,
          "velocity": 0.49606299212598426
        },
        {
          "duration": 1.9651283437500027,
          "durationTicks": 31239,
          "midi": 60,
          "name": "C4",
          "ticks": 1460184,
          "time": 62.584277256145846,
          "velocity": 0.5511811023622047
        },
        {
          "duration": 0.5983386249999967,
          "durationTicks": 8952,
          "midi": 72,
          "name": "C5",
          "ticks": 1517926,
          "time": 66.30324405552085,
          "velocity": 0.2125984251968504
        },
        {
          "duration": 0.6532799062500061,
          "durationTicks": 9774,
          "midi": 71,
          "name": "B4",
          "ticks": 1527383,
          "time": 66.93533614406252,
          "velocity": 0.18110236220472442
        },
        {
          "duration": 0.6381075572916757,
          "durationTicks": 9547,
          "midi": 69,
          "name": "A4",
          "ticks": 1536975,
          "time": 67.57645143572918,
          "velocity": 0.16535433070866143
        },
        {
          "duration": 0.6544593594791621,
          "durationTicks": 9794,
          "midi": 67,
          "name": "G4",
          "ticks": 1546672,
          "time": 68.22458477427085,
          "velocity": 0.18110236220472442
        },
        {
          "duration": 0.6054321739583344,
          "durationTicks": 9130,
          "midi": 69,
          "name": "A4",
          "ticks": 1556193,
          "time": 68.86094084968751,
          "velocity": 0.18110236220472442
        },
        {
          "duration": 0.6106708532291663,
          "durationTicks": 9209,
          "midi": 71,
          "name": "B4",
          "ticks": 1565832,
          "time": 69.50012603312501,
          "velocity": 0.16535433070866143
        },
        {
          "duration": 1.2232647659375004,
          "durationTicks": 18447,
          "midi": 72,
          "name": "C5",
          "ticks": 1575506,
          "time": 70.14163215041668,
          "velocity": 0.18110236220472442
        },
        {
          "duration": 0.6171633223958395,
          "durationTicks": 9371,
          "midi": 71,
          "name": "B4",
          "ticks": 1594601,
          "time": 71.40785192843751,
          "velocity": 0.1968503937007874
        },
        {
          "duration": 0.6065600468750034,
          "durationTicks": 9210,
          "midi": 69,
          "name": "A4",
          "ticks": 1604141,
          "time": 72.03614539718751,
          "velocity": 0.18110236220472442
        },
        {
          "duration": 0.5875926968749923,
          "durationTicks": 8922,
          "midi": 67,
          "name": "G4",
          "ticks": 1613852,
          "time": 72.67570073000002,
          "velocity": 0.1968503937007874
        },
        {
          "duration": 0.616570592708328,
          "durationTicks": 9362,
          "midi": 65,
          "name": "F4",
          "ticks": 1623293,
          "time": 73.29747417218752,
          "velocity": 0.1968503937007874
        },
        {
          "duration": 0.6271436393750065,
          "durationTicks": 9188,
          "midi": 67,
          "name": "G4",
          "ticks": 1632960,
          "time": 73.93413171541668,
          "velocity": 0.2283464566929134
        },
        {
          "duration": 0.6302320769791692,
          "durationTicks": 9233,
          "midi": 69,
          "name": "A4",
          "ticks": 1642452,
          "time": 74.58202598312502,
          "velocity": 0.18110236220472442
        },
        {
          "duration": 0.6298907837499996,
          "durationTicks": 9228,
          "midi": 71,
          "name": "B4",
          "ticks": 1652032,
          "time": 75.23594381020835,
          "velocity": 0.16535433070866143
        },
        {
          "duration": 0.6583601525000091,
          "durationTicks": 9648,
          "midi": 67,
          "name": "G4",
          "ticks": 1661909,
          "time": 75.91013445510418,
          "velocity": 0.18110236220472442
        },
        {
          "duration": 0.6164143760416607,
          "durationTicks": 9170,
          "midi": 69,
          "name": "A4",
          "ticks": 1671272,
          "time": 76.54924015604169,
          "velocity": 0.16535433070866143
        },
        {
          "duration": 0.6611437453125006,
          "durationTicks": 9837,
          "midi": 71,
          "name": "B4",
          "ticks": 1680855,
          "time": 77.19341221906252,
          "velocity": 0.2125984251968504
        },
        {
          "duration": 1.217910522395826,
          "durationTicks": 18121,
          "midi": 69,
          "name": "A4",
          "ticks": 1690596,
          "time": 77.84810381437502,
          "velocity": 0.18110236220472442
        },
        {
          "duration": 0.5833492587500047,
          "durationTicks": 9062,
          "midi": 71,
          "name": "B4",
          "ticks": 1709885,
          "time": 79.14418075614586,
          "velocity": 0.16535433070866143
        },
        {
          "duration": 0.6173382687500037,
          "durationTicks": 9590,
          "midi": 67,
          "name": "G4",
          "ticks": 1719389,
          "time": 79.75598293614586,
          "velocity": 0.2283464566929134
        },
        {
          "duration": 1.2172957937499973,
          "durationTicks": 18910,
          "midi": 72,
          "name": "C5",
          "ticks": 1729001,
          "time": 80.37473741364586,
          "velocity": 0.1968503937007874
        },
        {
          "duration": 0.6088663756249986,
          "durationTicks": 9223,
          "midi": 72,
          "name": "C5",
          "ticks": 1748148,
          "time": 81.60728963802086,
          "velocity": 0.1732283464566929
        },
        {
          "duration": 0.6683151876041649,
          "durationTicks": 10123,
          "midi": 71,
          "name": "B4",
          "ticks": 1757789,
          "time": 82.24375215593753,
          "velocity": 0.2283464566929134
        },
        {
          "duration": 1.3304626031250137,
          "durationTicks": 20145,
          "midi": 69,
          "name": "A4",
          "ticks": 1767407,
          "time": 82.87872750656253,
          "velocity": 0.2283464566929134
        },
        {
          "duration": 0.6213755720833376,
          "durationTicks": 9341,
          "midi": 71,
          "name": "B4",
          "ticks": 1786457,
          "time": 84.13639858468753,
          "velocity": 0.1732283464566929
        },
        {
          "duration": 0.636533126666663,
          "durationTicks": 9568,
          "midi": 69,
          "name": "A4",
          "ticks": 1796161,
          "time": 84.78192356364588,
          "velocity": 0.16535433070866143
        },
        {
          "duration": 0.6653394439583309,
          "durationTicks": 10001,
          "midi": 67,
          "name": "G4",
          "ticks": 1805705,
          "time": 85.41686003531254,
          "velocity": 0.18110236220472442
        },
        {
          "duration": 0.6534953484375023,
          "durationTicks": 9834,
          "midi": 72,
          "name": "C5",
          "ticks": 1815352,
          "time": 86.05864881802087,
          "velocity": 0.18110236220472442
        },
        {
          "duration": 0.5769389668750051,
          "durationTicks": 9132,
          "midi": 65,
          "name": "F4",
          "ticks": 1824961,
          "time": 86.69790956364587,
          "velocity": 0.1968503937007874
        },
        {
          "duration": 0.5947975286458416,
          "durationTicks": 9415,
          "midi": 67,
          "name": "G4",
          "ticks": 1834558,
          "time": 87.30422514770837,
          "velocity": 0.18110236220472442
        },
        {
          "duration": 0.5628307151041696,
          "durationTicks": 8909,
          "midi": 69,
          "name": "A4",
          "ticks": 1844293,
          "time": 87.91923884302086,
          "velocity": 0.1968503937007874
        },
        {
          "duration": 0.6270213097916582,
          "durationTicks": 9926,
          "midi": 67,
          "name": "G4",
          "ticks": 1853613,
          "time": 88.50803469718754,
          "velocity": 0.18110236220472442
        },
        {
          "duration": 0.6168945985416627,
          "durationTicks": 9818,
          "midi": 65,
          "name": "F4",
          "ticks": 1863401,
          "time": 89.1263850501042,
          "velocity": 0.1968503937007874
        },
        {
          "duration": 0.5858550862500067,
          "durationTicks": 9324,
          "midi": 67,
          "name": "G4",
          "ticks": 1873029,
          "time": 89.73134137468753,
          "velocity": 0.1968503937007874
        },
        {
          "duration": 0.6321630226041748,
          "durationTicks": 10061,
          "midi": 69,
          "name": "A4",
          "ticks": 1882489,
          "time": 90.32574175177086,
          "velocity": 0.1889763779527559
        },
        {
          "duration": 0.5683246734375018,
          "durationTicks": 9045,
          "midi": 71,
          "name": "B4",
          "ticks": 1892081,
          "time": 90.9284360876042,
          "velocity": 0.1889763779527559
        },
        {
          "duration": 0.5592324455208342,
          "durationTicks": 9031,
          "midi": 69,
          "name": "A4",
          "ticks": 1901784,
          "time": 91.53808942937503,
          "velocity": 0.23622047244094488
        },
        {
          "duration": 0.5630717115625004,
          "durationTicks": 9093,
          "midi": 71,
          "name": "B4",
          "ticks": 1911379,
          "time": 92.13224681114588,
          "velocity": 0.18110236220472442
        },
        {
          "duration": 0.6062324927083296,
          "durationTicks": 9790,
          "midi": 72,
          "name": "C5",
          "ticks": 1920863,
          "time": 92.71953066822921,
          "velocity": 0.1968503937007874
        },
        {
          "duration": 0.6262678821875198,
          "durationTicks": 10122,
          "midi": 71,
          "name": "B4",
          "ticks": 1930476,
          "time": 93.31480267562503,
          "velocity": 0.18110236220472442
        },
        {
          "duration": 0.6123253494791783,
          "durationTicks": 10085,
          "midi": 69,
          "name": "A4",
          "ticks": 1940110,
          "time": 93.91137507958337,
          "velocity": 0.23622047244094488
        },
        {
          "duration": 0.6077636387500007,
          "durationTicks": 10011,
          "midi": 67,
          "name": "G4",
          "ticks": 1949810,
          "time": 94.5003272394792,
          "velocity": 0.1968503937007874
        },
        {
          "duration": 0.5512430166666604,
          "durationTicks": 9080,
          "midi": 69,
          "name": "A4",
          "ticks": 1959327,
          "time": 95.07810034406255,
          "velocity": 0.18110236220472442
        },
        {
          "duration": 0.5642955770833282,
          "durationTicks": 9295,
          "midi": 71,
          "name": "B4",
          "ticks": 1968925,
          "time": 95.66079092489588,
          "velocity": 0.18110236220472442
        },
        {
          "duration": 0.58633315583333,
          "durationTicks": 9658,
          "midi": 72,
          "name": "C5",
          "ticks": 1978510,
          "time": 96.24269228114588,
          "velocity": 0.1968503937007874
        },
        {
          "duration": 0.588275862499998,
          "durationTicks": 9690,
          "midi": 71,
          "name": "B4",
          "ticks": 1988221,
          "time": 96.83224304489588,
          "velocity": 0.23622047244094488
        },
        {
          "duration": 0.5417723216666701,
          "durationTicks": 8924,
          "midi": 69,
          "name": "A4",
          "ticks": 1997789,
          "time": 97.41311233822921,
          "velocity": 0.2125984251968504
        },
        {
          "duration": 0.5590745529166696,
          "durationTicks": 9209,
          "midi": 67,
          "name": "G4",
          "ticks": 2007384,
          "time": 97.99562079031254,
          "velocity": 0.2125984251968504
        },
        {
          "duration": 0.5702449281250068,
          "durationTicks": 9470,
          "midi": 69,
          "name": "A4",
          "ticks": 2017041,
          "time": 98.58185670677088,
          "velocity": 0.2125984251968504
        },
        {
          "duration": 0.60643470656251,
          "durationTicks": 10071,
          "midi": 71,
          "name": "B4",
          "ticks": 2026439,
          "time": 99.14776608739588,
          "velocity": 0.1968503937007874
        },
        {
          "duration": 1.0946655278125093,
          "durationTicks": 18179,
          "midi": 72,
          "name": "C5",
          "ticks": 2036130,
          "time": 99.73131873770838,
          "velocity": 0.23622047244094488
        },
        {
          "duration": 0.6177346609375007,
          "durationTicks": 9851,
          "midi": 71,
          "name": "B4",
          "ticks": 2055404,
          "time": 100.89201291645838,
          "velocity": 0.18110236220472442
        },
        {
          "duration": 0.5592282718749999,
          "durationTicks": 8918,
          "midi": 69,
          "name": "A4",
          "ticks": 2064989,
          "time": 101.49306729927088,
          "velocity": 0.1968503937007874
        },
        {
          "duration": 0.568697196145834,
          "durationTicks": 8969,
          "midi": 67,
          "name": "G4",
          "ticks": 2074573,
          "time": 102.09406316927088,
          "velocity": 0.1968503937007874
        },
        {
          "duration": 0.6441641582291737,
          "durationTicks": 10117,
          "midi": 65,
          "name": "F4",
          "ticks": 2084130,
          "time": 102.70004366916672,
          "velocity": 0.18110236220472442
        },
        {
          "duration": 0.6373656666666676,
          "durationTicks": 9245,
          "midi": 72,
          "name": "C5",
          "ticks": 2093701,
          "time": 103.30691186677089,
          "velocity": 0.18110236220472442
        },
        {
          "duration": 0.6404928406250008,
          "durationTicks": 9285,
          "midi": 69,
          "name": "A4",
          "ticks": 2103430,
          "time": 103.97766455927089,
          "velocity": 0.23622047244094488
        },
        {
          "duration": 1.9224673029166723,
          "durationTicks": 38309,
          "midi": 72,
          "name": "C5",
          "ticks": 2112953,
          "time": 104.63457498697923,
          "velocity": 0.18110236220472442
        },
        {
          "duration": 0.6323886375000001,
          "durationTicks": 19608,
          "midi": 60,
          "name": "C4",
          "ticks": 2208993,
          "time": 107.6314342680209,
          "velocity": 0.41732283464566927
        },
        {
          "duration": 0.318484179687502,
          "durationTicks": 9875,
          "midi": 59,
          "name": "B3",
          "ticks": 2228141,
          "time": 108.2489871867709,
          "velocity": 0.4330708661417323
        },
        {
          "duration": 0.6255190546875014,
          "durationTicks": 19395,
          "midi": 57,
          "name": "A3",
          "ticks": 2237742,
          "time": 108.5586344383334,
          "velocity": 0.3700787401574803
        },
        {
          "duration": 0.299036487500004,
          "durationTicks": 9272,
          "midi": 59,
          "name": "B3",
          "ticks": 2256919,
          "time": 109.1771226523959,
          "velocity": 0.3700787401574803
        },
        {
          "duration": 0.6094577765625075,
          "durationTicks": 18897,
          "midi": 60,
          "name": "C4",
          "ticks": 2266599,
          "time": 109.4893177773959,
          "velocity": 0.4015748031496063
        },
        {
          "duration": 0.3114210874999941,
          "durationTicks": 9656,
          "midi": 59,
          "name": "B3",
          "ticks": 2285857,
          "time": 110.1104183680209,
          "velocity": 0.3937007874015748
        },
        {
          "duration": 0.3021003859374929,
          "durationTicks": 9367,
          "midi": 57,
          "name": "A3",
          "ticks": 2295369,
          "time": 110.4171952305209,
          "velocity": 0.3937007874015748
        },
        {
          "duration": 0.3043579953125004,
          "durationTicks": 9437,
          "midi": 59,
          "name": "B3",
          "ticks": 2304952,
          "time": 110.7262619539584,
          "velocity": 0.4330708661417323
        },
        {
          "duration": 0.3115911464583263,
          "durationTicks": 9665,
          "midi": 60,
          "name": "C4",
          "ticks": 2314555,
          "time": 111.0359737086459,
          "velocity": 0.3779527559055118
        },
        {
          "duration": 0.27837981041665216,
          "durationTicks": 9282,
          "midi": 55,
          "name": "G3",
          "ticks": 2324135,
          "time": 111.3449436773959,
          "velocity": 0.5118110236220472
        },
        {
          "duration": 0.2917698439583347,
          "durationTicks": 9731,
          "midi": 57,
          "name": "A3",
          "ticks": 2333738,
          "time": 111.63294820468757,
          "velocity": 0.5354330708661418
        },
        {
          "duration": 0.2834943864583295,
          "durationTicks": 9455,
          "midi": 60,
          "name": "C4",
          "ticks": 2343474,
          "time": 111.92486796635423,
          "velocity": 0.49606299212598426
        },
        {
          "duration": 0.2967171283333272,
          "durationTicks": 9896,
          "midi": 55,
          "name": "G3",
          "ticks": 2353066,
          "time": 112.2124700980209,
          "velocity": 0.49606299212598426
        },
        {
          "duration": 0.2916499097916727,
          "durationTicks": 9727,
          "midi": 57,
          "name": "A3",
          "ticks": 2362573,
          "time": 112.4975236286459,
          "velocity": 0.5118110236220472
        },
        {
          "duration": 0.27956654249999247,
          "durationTicks": 9324,
          "midi": 60,
          "name": "C4",
          "ticks": 2372115,
          "time": 112.78362658322924,
          "velocity": 0.5354330708661418
        },
        {
          "duration": 0.29476819812499855,
          "durationTicks": 9831,
          "midi": 55,
          "name": "G3",
          "ticks": 2381726,
          "time": 113.07179840218757,
          "velocity": 0.4566929133858268
        },
        {
          "duration": 0.2941385437499946,
          "durationTicks": 9810,
          "midi": 57,
          "name": "A3",
          "ticks": 2391293,
          "time": 113.35865094531256,
          "velocity": 0.4881889763779528
        },
        {
          "duration": 0.27434940624999626,
          "durationTicks": 9150,
          "midi": 60,
          "name": "C4",
          "ticks": 2400900,
          "time": 113.64670283010423,
          "velocity": 0.5118110236220472
        },
        {
          "duration": 0.2761484187499974,
          "durationTicks": 9210,
          "midi": 55,
          "name": "G3",
          "ticks": 2410519,
          "time": 113.9351145173959,
          "velocity": 0.4409448818897638
        },
        {
          "duration": 0.27680805666666686,
          "durationTicks": 9232,
          "midi": 57,
          "name": "A3",
          "ticks": 2420085,
          "time": 114.22193707697923,
          "velocity": 0.5354330708661418
        },
        {
          "duration": 0.2799263450000069,
          "durationTicks": 9336,
          "midi": 60,
          "name": "C4",
          "ticks": 2429893,
          "time": 114.5160156536459,
          "velocity": 0.4251968503937008
        },
        {
          "duration": 0.5887868077083311,
          "durationTicks": 19637,
          "midi": 60,
          "name": "C4",
          "ticks": 2439356,
          "time": 114.79974990843756,
          "velocity": 0.4881889763779528
        },
        {
          "duration": 0.2863428229166658,
          "durationTicks": 9550,
          "midi": 59,
          "name": "B3",
          "ticks": 2458658,
          "time": 115.37849222968757,
          "velocity": 0.5118110236220472
        },
        {
          "duration": 0.5821604449999995,
          "durationTicks": 19416,
          "midi": 57,
          "name": "A3",
          "ticks": 2468251,
          "time": 115.66612434489589,
          "velocity": 0.4330708661417323
        },
        {
          "duration": 0.2891312922916711,
          "durationTicks": 9643,
          "midi": 59,
          "name": "B3",
          "ticks": 2487442,
          "time": 116.2415384930209,
          "velocity": 0.4645669291338583
        },
        {
          "duration": 0.591845128958326,
          "durationTicks": 19739,
          "midi": 60,
          "name": "C4",
          "ticks": 2496927,
          "time": 116.52593238572923,
          "velocity": 0.4330708661417323
        },
        {
          "duration": 0.28976094666666086,
          "durationTicks": 9664,
          "midi": 59,
          "name": "B3",
          "ticks": 2516066,
          "time": 117.09978738968756,
          "velocity": 0.4330708661417323
        },
        {
          "duration": 0.28937116062500934,
          "durationTicks": 9651,
          "midi": 57,
          "name": "A3",
          "ticks": 2525813,
          "time": 117.39203697031256,
          "velocity": 0.4409448818897638
        },
        {
          "duration": 0.2873622633333355,
          "durationTicks": 9584,
          "midi": 59,
          "name": "B3",
          "ticks": 2535449,
          "time": 117.68095837781256,
          "velocity": 0.47244094488188976
        },
        {
          "duration": 0.2965844718749935,
          "durationTicks": 9897,
          "midi": 60,
          "name": "C4",
          "ticks": 2544991,
          "time": 117.9670613323959,
          "velocity": 0.49606299212598426
        },
        {
          "duration": 0.28157577666667066,
          "durationTicks": 9552,
          "midi": 53,
          "name": "F3",
          "ticks": 2554542,
          "time": 118.25343413885423,
          "velocity": 0.4566929133858268
        },
        {
          "duration": 0.29022931125000184,
          "durationTicks": 9846,
          "midi": 59,
          "name": "B3",
          "ticks": 2564112,
          "time": 118.5355404992709,
          "velocity": 0.5275590551181102
        },
        {
          "duration": 0.2698313137500037,
          "durationTicks": 9154,
          "midi": 60,
          "name": "C4",
          "ticks": 2573868,
          "time": 118.8231168917709,
          "velocity": 0.4881889763779528
        },
        {
          "duration": 0.2787628068750081,
          "durationTicks": 9457,
          "midi": 53,
          "name": "F3",
          "ticks": 2583317,
          "time": 119.10164388364589,
          "velocity": 0.5039370078740157
        },
        {
          "duration": 0.28064932687500743,
          "durationTicks": 9521,
          "midi": 59,
          "name": "B3",
          "ticks": 2592944,
          "time": 119.3854177592709,
          "velocity": 0.5118110236220472
        },
        {
          "duration": 0.2849234737499984,
          "durationTicks": 9666,
          "midi": 60,
          "name": "C4",
          "ticks": 2602505,
          "time": 119.6672461611459,
          "velocity": 0.4881889763779528
        },
        {
          "duration": 0.2839212599999996,
          "durationTicks": 9632,
          "midi": 53,
          "name": "F3",
          "ticks": 2612113,
          "time": 119.9504599761459,
          "velocity": 0.5118110236220472
        },
        {
          "duration": 0.27027346687499687,
          "durationTicks": 9169,
          "midi": 59,
          "name": "B3",
          "ticks": 2621782,
          "time": 120.2354718805209,
          "velocity": 0.4409448818897638
        },
        {
          "duration": 0.2703029437500106,
          "durationTicks": 9170,
          "midi": 60,
          "name": "C4",
          "ticks": 2631253,
          "time": 120.51464736364589,
          "velocity": 0.4566929133858268
        },
        {
          "duration": 0.27454761375000203,
          "durationTicks": 9314,
          "midi": 53,
          "name": "F3",
          "ticks": 2640863,
          "time": 120.7979201323959,
          "velocity": 0.5118110236220472
        },
        {
          "duration": 0.28477608937500065,
          "durationTicks": 9661,
          "midi": 59,
          "name": "B3",
          "ticks": 2650531,
          "time": 121.0829025598959,
          "velocity": 0.4251968503937008
        },
        {
          "duration": 0.2880977158333309,
          "durationTicks": 9774,
          "midi": 60,
          "name": "C4",
          "ticks": 2660133,
          "time": 121.3659395136459,
          "velocity": 0.4881889763779528
        },
        {
          "duration": 0.28037274572916715,
          "durationTicks": 9533,
          "midi": 57,
          "name": "A3",
          "ticks": 2669763,
          "time": 121.6498018198959,
          "velocity": 0.4330708661417323
        },
        {
          "duration": 0.270343422499991,
          "durationTicks": 9192,
          "midi": 60,
          "name": "C4",
          "ticks": 2679374,
          "time": 121.93246860250007,
          "velocity": 0.47244094488188976
        },
        {
          "duration": 0.27946074854166625,
          "durationTicks": 9502,
          "midi": 59,
          "name": "B3",
          "ticks": 2689049,
          "time": 122.21701740718757,
          "velocity": 0.4881889763779528
        },
        {
          "duration": 0.274019763645839,
          "durationTicks": 9317,
          "midi": 55,
          "name": "G3",
          "ticks": 2698560,
          "time": 122.49674285229173,
          "velocity": 0.4330708661417323
        },
        {
          "duration": 0.2809901064583329,
          "durationTicks": 9554,
          "midi": 60,
          "name": "C4",
          "ticks": 2708248,
          "time": 122.7816739964584,
          "velocity": 0.47244094488188976
        },
        {
          "duration": 0.27578440739583243,
          "durationTicks": 9377,
          "midi": 59,
          "name": "B3",
          "ticks": 2717755,
          "time": 123.0612817986459,
          "velocity": 0.4881889763779528
        },
        {
          "duration": 0.27643144343750237,
          "durationTicks": 9399,
          "midi": 53,
          "name": "F3",
          "ticks": 2727408,
          "time": 123.34518356729173,
          "velocity": 0.4409448818897638
        },
        {
          "duration": 0.270019904479156,
          "durationTicks": 9181,
          "midi": 60,
          "name": "C4",
          "ticks": 2736882,
          "time": 123.62382081541674,
          "velocity": 0.4409448818897638
        },
        {
          "duration": 0.29075446854166387,
          "durationTicks": 9886,
          "midi": 59,
          "name": "B3",
          "ticks": 2746566,
          "time": 123.90863431666673,
          "velocity": 0.49606299212598426
        },
        {
          "duration": 0.2887545389583295,
          "durationTicks": 9818,
          "midi": 57,
          "name": "A3",
          "ticks": 2756006,
          "time": 124.18627160000007,
          "velocity": 0.4251968503937008
        },
        {
          "duration": 0.2811371601041657,
          "durationTicks": 9559,
          "midi": 60,
          "name": "C4",
          "ticks": 2765680,
          "time": 124.4707909939584,
          "velocity": 0.47244094488188976
        },
        {
          "duration": 0.27578440739583243,
          "durationTicks": 9377,
          "midi": 59,
          "name": "B3",
          "ticks": 2775321,
          "time": 124.75433983385423,
          "velocity": 0.5118110236220472
        },
        {
          "duration": 0.28407823302083557,
          "durationTicks": 9659,
          "midi": 55,
          "name": "G3",
          "ticks": 2784967,
          "time": 125.0380357273959,
          "velocity": 0.47244094488188976
        },
        {
          "duration": 0.27472562114583354,
          "durationTicks": 9341,
          "midi": 57,
          "name": "A3",
          "ticks": 2794515,
          "time": 125.31884936947922,
          "velocity": 0.47244094488188976
        },
        {
          "duration": 0.27940192708332745,
          "durationTicks": 9500,
          "midi": 59,
          "name": "B3",
          "ticks": 2804196,
          "time": 125.60357463854173,
          "velocity": 0.47244094488188976
        },
        {
          "duration": 0.28513701927083446,
          "durationTicks": 9695,
          "midi": 60,
          "name": "C4",
          "ticks": 2813752,
          "time": 125.8846235664584,
          "velocity": 0.4251968503937008
        },
        {
          "duration": 0.2781960871874958,
          "durationTicks": 9459,
          "midi": 59,
          "name": "B3",
          "ticks": 2823461,
          "time": 126.17017233593756,
          "velocity": 0.4330708661417323
        },
        {
          "duration": 0.2817841961458356,
          "durationTicks": 9581,
          "midi": 57,
          "name": "A3",
          "ticks": 2832942,
          "time": 126.44901545916673,
          "velocity": 0.47244094488188976
        },
        {
          "duration": 0.8110302675000014,
          "durationTicks": 27576,
          "midi": 59,
          "name": "B3",
          "ticks": 2842588,
          "time": 126.73271135270839,
          "velocity": 0.4330708661417323
        },
        {
          "duration": 0.5571862640624943,
          "durationTicks": 18945,
          "midi": 55,
          "name": "G3",
          "ticks": 2871338,
          "time": 127.57826981625007,
          "velocity": 0.47244094488188976
        },
        {
          "duration": 0.27106955416667233,
          "durationTicks": 9620,
          "midi": 55,
          "name": "G3",
          "ticks": 2900213,
          "time": 128.42744790197924,
          "velocity": 0.5196850393700787
        },
        {
          "duration": 0.27177399687499815,
          "durationTicks": 9645,
          "midi": 60,
          "name": "C4",
          "ticks": 2909750,
          "time": 128.69617870635423,
          "velocity": 0.5275590551181102
        },
        {
          "duration": 0.27292928291666385,
          "durationTicks": 9686,
          "midi": 57,
          "name": "A3",
          "ticks": 2919379,
          "time": 128.96750185989592,
          "velocity": 0.6220472440944882
        },
        {
          "duration": 0.26199633208335626,
          "durationTicks": 9298,
          "midi": 55,
          "name": "G3",
          "ticks": 2928850,
          "time": 129.2343729355209,
          "velocity": 0.6220472440944882
        },
        {
          "duration": 0.2633206843749747,
          "durationTicks": 9345,
          "midi": 60,
          "name": "C4",
          "ticks": 2938515,
          "time": 129.50671048656258,
          "velocity": 0.6220472440944882
        },
        {
          "duration": 0.2628698410416632,
          "durationTicks": 9329,
          "midi": 57,
          "name": "A3",
          "ticks": 2948065,
          "time": 129.7758076011459,
          "velocity": 0.6456692913385826
        },
        {
          "duration": 0.2734646593750085,
          "durationTicks": 9705,
          "midi": 55,
          "name": "G3",
          "ticks": 2957766,
          "time": 130.04915954968757,
          "velocity": 0.5905511811023622
        },
        {
          "duration": 0.2789593124999783,
          "durationTicks": 9900,
          "midi": 60,
          "name": "C4",
          "ticks": 2967250,
          "time": 130.3163969355209,
          "velocity": 0.5984251968503937
        },
        {
          "duration": 0.2741350985416773,
          "durationTicks": 9724,
          "midi": 57,
          "name": "A3",
          "ticks": 2976914,
          "time": 130.58870630885423,
          "velocity": 0.5275590551181102
        },
        {
          "duration": 0.27754816000000915,
          "durationTicks": 9227,
          "midi": 55,
          "name": "G3",
          "ticks": 2986625,
          "time": 130.8624503673959,
          "velocity": 0.6220472440944882
        },
        {
          "duration": 0.2939417599999956,
          "durationTicks": 9772,
          "midi": 60,
          "name": "C4",
          "ticks": 2996172,
          "time": 131.1496241273959,
          "velocity": 0.47244094488188976
        },
        {
          "duration": 0.2912201906250118,
          "durationTicks": 9681,
          "midi": 57,
          "name": "A3",
          "ticks": 3005800,
          "time": 131.4392343673959,
          "velocity": 0.5118110236220472
        },
        {
          "duration": 0.2768858159375043,
          "durationTicks": 9163,
          "midi": 53,
          "name": "F3",
          "ticks": 3015450,
          "time": 131.7295178058334,
          "velocity": 0.4330708661417323
        },
        {
          "duration": 0.2943517115625127,
          "durationTicks": 9741,
          "midi": 55,
          "name": "G3",
          "ticks": 3024894,
          "time": 132.0148948270834,
          "velocity": 0.47244094488188976
        },
        {
          "duration": 0.28598137750000774,
          "durationTicks": 9464,
          "midi": 57,
          "name": "A3",
          "ticks": 3034660,
          "time": 132.31000198395841,
          "velocity": 0.4645669291338583
        },
        {
          "duration": 0.2966460409374747,
          "durationTicks": 9795,
          "midi": 59,
          "name": "B3",
          "ticks": 3044140,
          "time": 132.5964668464584,
          "velocity": 0.4251968503937008
        },
        {
          "duration": 0.334492598541658,
          "durationTicks": 9794,
          "midi": 60,
          "name": "C4",
          "ticks": 3053745,
          "time": 132.88670893552091,
          "velocity": 0.4094488188976378
        },
        {
          "duration": 0.334271908333335,
          "durationTicks": 9785,
          "midi": 59,
          "name": "B3",
          "ticks": 3063338,
          "time": 133.21433503906258,
          "velocity": 0.4094488188976378
        },
        {
          "duration": 0.3231693666666615,
          "durationTicks": 9460,
          "midi": 57,
          "name": "A3",
          "ticks": 3073018,
          "time": 133.5450199723959,
          "velocity": 0.3858267716535433
        },
        {
          "duration": 0.3914186556250172,
          "durationTicks": 9318,
          "midi": 55,
          "name": "G3",
          "ticks": 3082500,
          "time": 133.86894089572922,
          "velocity": 0.3464566929133858
        },
        {
          "duration": 0.5729358246875051,
          "durationTicks": 9642,
          "midi": 59,
          "name": "B3",
          "ticks": 3092074,
          "time": 134.2711278180209,
          "velocity": 0.3464566929133858
        },
        {
          "duration": 1.6320188093750119,
          "durationTicks": 22087,
          "midi": 57,
          "name": "A3",
          "ticks": 3101717,
          "time": 134.84412323260423,
          "velocity": 0.3464566929133858
        },
        {
          "duration": 1.7009663125000145,
          "durationTicks": 23010,
          "midi": 60,
          "name": "C4",
          "ticks": 3101776,
          "time": 134.8477680336459,
          "velocity": 0.33858267716535434
        },
        {
          "duration": 0.6342752145833401,
          "durationTicks": 19885,
          "midi": 60,
          "name": "C4",
          "ticks": 3130528,
          "time": 136.9731997336459,
          "velocity": 0.3858267716535433
        },
        {
          "duration": 0.31178291666665814,
          "durationTicks": 9800,
          "midi": 59,
          "name": "B3",
          "ticks": 3149935,
          "time": 137.59226757739592,
          "velocity": 0.36220472440944884
        },
        {
          "duration": 0.5953144833333397,
          "durationTicks": 18712,
          "midi": 57,
          "name": "A3",
          "ticks": 3159349,
          "time": 137.89177006489592,
          "velocity": 0.3858267716535433
        },
        {
          "duration": 0.2950166312500073,
          "durationTicks": 9273,
          "midi": 59,
          "name": "B3",
          "ticks": 3178501,
          "time": 138.50108296489591,
          "velocity": 0.4094488188976378
        },
        {
          "duration": 0.614435047916686,
          "durationTicks": 19313,
          "midi": 60,
          "name": "C4",
          "ticks": 3188316,
          "time": 138.81334310031258,
          "velocity": 0.4251968503937008
        },
        {
          "duration": 0.30338386666667816,
          "durationTicks": 9536,
          "midi": 59,
          "name": "B3",
          "ticks": 3207301,
          "time": 139.4173429648959,
          "velocity": 0.4094488188976378
        },
        {
          "duration": 0.3038292708333472,
          "durationTicks": 9550,
          "midi": 57,
          "name": "A3",
          "ticks": 3216923,
          "time": 139.72346288572925,
          "velocity": 0.4251968503937008
        },
        {
          "duration": 0.29660736041665814,
          "durationTicks": 9323,
          "midi": 59,
          "name": "B3",
          "ticks": 3226565,
          "time": 140.03021909822925,
          "velocity": 0.4251968503937008
        },
        {
          "duration": 0.29749816874999624,
          "durationTicks": 9351,
          "midi": 60,
          "name": "C4",
          "ticks": 3236044,
          "time": 140.33178953364592,
          "velocity": 0.36220472440944884
        },
        {
          "duration": 0.27779260093751645,
          "durationTicks": 9461,
          "midi": 55,
          "name": "G3",
          "ticks": 3245737,
          "time": 140.6401682898959,
          "velocity": 0.3779527559055118
        },
        {
          "duration": 0.2890200993749943,
          "durationTicks": 9846,
          "midi": 57,
          "name": "A3",
          "ticks": 3255238,
          "time": 140.91913505333343,
          "velocity": 0.4409448818897638
        },
        {
          "duration": 0.2742843600000242,
          "durationTicks": 9344,
          "midi": 60,
          "name": "C4",
          "ticks": 3264995,
          "time": 141.2055426411459,
          "velocity": 0.3779527559055118
        },
        {
          "duration": 0.27002802093750233,
          "durationTicks": 9199,
          "midi": 55,
          "name": "G3",
          "ticks": 3274585,
          "time": 141.48704810052092,
          "velocity": 0.4015748031496063
        },
        {
          "duration": 0.2882568937500025,
          "durationTicks": 9820,
          "midi": 57,
          "name": "A3",
          "ticks": 3284305,
          "time": 141.77236958802092,
          "velocity": 0.4015748031496063
        },
        {
          "duration": 0.28608469312499096,
          "durationTicks": 9746,
          "midi": 60,
          "name": "C4",
          "ticks": 3293773,
          "time": 142.05029385177093,
          "velocity": 0.4015748031496063
        },
        {
          "duration": 0.2821512487500115,
          "durationTicks": 9612,
          "midi": 55,
          "name": "G3",
          "ticks": 3303385,
          "time": 142.3324451005209,
          "velocity": 0.3779527559055118
        },
        {
          "duration": 0.27807103406252054,
          "durationTicks": 9473,
          "midi": 57,
          "name": "A3",
          "ticks": 3312992,
          "time": 142.6144495789584,
          "velocity": 0.4015748031496063
        },
        {
          "duration": 0.28132933499998103,
          "durationTicks": 9584,
          "midi": 60,
          "name": "C4",
          "ticks": 3322703,
          "time": 142.89950687989594,
          "velocity": 0.4015748031496063
        },
        {
          "duration": 0.26996931281249203,
          "durationTicks": 9197,
          "midi": 55,
          "name": "G3",
          "ticks": 3332213,
          "time": 143.17866401427094,
          "velocity": 0.4015748031496063
        },
        {
          "duration": 0.2749888575000057,
          "durationTicks": 9368,
          "midi": 57,
          "name": "A3",
          "ticks": 3341712,
          "time": 143.45749825395842,
          "velocity": 0.4015748031496063
        },
        {
          "duration": 0.2717599106249793,
          "durationTicks": 9258,
          "midi": 60,
          "name": "C4",
          "ticks": 3351242,
          "time": 143.73724246958344,
          "velocity": 0.3779527559055118
        },
        {
          "duration": 0.5692867148958385,
          "durationTicks": 19385,
          "midi": 60,
          "name": "C4",
          "ticks": 3360948,
          "time": 144.02215300020842,
          "velocity": 0.4409448818897638
        },
        {
          "duration": 0.28524551572914447,
          "durationTicks": 9713,
          "midi": 59,
          "name": "B3",
          "ticks": 3380111,
          "time": 144.58492015322926,
          "velocity": 0.4409448818897638
        },
        {
          "duration": 0.5830015420833377,
          "durationTicks": 19852,
          "midi": 57,
          "name": "A3",
          "ticks": 3389741,
          "time": 144.86772817510425,
          "velocity": 0.3779527559055118
        },
        {
          "duration": 0.27132537010416513,
          "durationTicks": 9239,
          "midi": 59,
          "name": "B3",
          "ticks": 3408848,
          "time": 145.42885100729174,
          "velocity": 0.3779527559055118
        },
        {
          "duration": 0.5539571876041691,
          "durationTicks": 18863,
          "midi": 60,
          "name": "C4",
          "ticks": 3418610,
          "time": 145.71553552541675,
          "velocity": 0.4409448818897638
        },
        {
          "duration": 0.2738215987500041,
          "durationTicks": 9324,
          "midi": 59,
          "name": "B3",
          "ticks": 3437845,
          "time": 146.28041738427092,
          "velocity": 0.3700787401574803
        },
        {
          "duration": 0.27760999281250065,
          "durationTicks": 9453,
          "midi": 57,
          "name": "A3",
          "ticks": 3447321,
          "time": 146.55870282718757,
          "velocity": 0.4409448818897638
        },
        {
          "duration": 0.28874023583335884,
          "durationTicks": 9832,
          "midi": 59,
          "name": "B3",
          "ticks": 3456828,
          "time": 146.83789865937507,
          "velocity": 0.3779527559055118
        },
        {
          "duration": 0.27285247468751095,
          "durationTicks": 9291,
          "midi": 60,
          "name": "C4",
          "ticks": 3466730,
          "time": 147.12869461291675,
          "velocity": 0.3858267716535433
        },
        {
          "duration": 0.27665060333333713,
          "durationTicks": 9694,
          "midi": 53,
          "name": "F3",
          "ticks": 3476204,
          "time": 147.40689064572925,
          "velocity": 0.3858267716535433
        },
        {
          "duration": 0.2790478233333147,
          "durationTicks": 9778,
          "midi": 59,
          "name": "B3",
          "ticks": 3485784,
          "time": 147.6802878790626,
          "velocity": 0.4094488188976378
        },
        {
          "duration": 0.2685742550000043,
          "durationTicks": 9411,
          "midi": 60,
          "name": "C4",
          "ticks": 3495358,
          "time": 147.95351388239592,
          "velocity": 0.3937007874015748
        },
        {
          "duration": 0.2694874816666868,
          "durationTicks": 9443,
          "midi": 53,
          "name": "F3",
          "ticks": 3504826,
          "time": 148.22371482239592,
          "velocity": 0.3858267716535433
        },
        {
          "duration": 0.2821299633333183,
          "durationTicks": 9886,
          "midi": 59,
          "name": "B3",
          "ticks": 3514645,
          "time": 148.50393271739594,
          "velocity": 0.4409448818897638
        },
        {
          "duration": 0.2706575533333364,
          "durationTicks": 9484,
          "midi": 60,
          "name": "C4",
          "ticks": 3524095,
          "time": 148.77361996739592,
          "velocity": 0.4094488188976378
        },
        {
          "duration": 0.2685742550000043,
          "durationTicks": 9411,
          "midi": 53,
          "name": "F3",
          "ticks": 3533751,
          "time": 149.0491861140626,
          "velocity": 0.4094488188976378
        },
        {
          "duration": 0.28161627333332717,
          "durationTicks": 9868,
          "midi": 59,
          "name": "B3",
          "ticks": 3543347,
          "time": 149.32303996072926,
          "velocity": 0.4094488188976378
        },
        {
          "duration": 0.2807315850000123,
          "durationTicks": 9837,
          "midi": 60,
          "name": "C4",
          "ticks": 3553005,
          "time": 149.5986631840626,
          "velocity": 0.3858267716535433
        },
        {
          "duration": 0.2803605866666601,
          "durationTicks": 9824,
          "midi": 53,
          "name": "F3",
          "ticks": 3562648,
          "time": 149.87385833239594,
          "velocity": 0.4409448818897638
        },
        {
          "duration": 0.26925917500000196,
          "durationTicks": 9435,
          "midi": 59,
          "name": "B3",
          "ticks": 3572270,
          "time": 150.14845417572926,
          "velocity": 0.4094488188976378
        },
        {
          "duration": 0.26106867333334094,
          "durationTicks": 9148,
          "midi": 60,
          "name": "C4",
          "ticks": 3581847,
          "time": 150.4217657940626,
          "velocity": 0.4645669291338583
        },
        {
          "duration": 0.27384147718751706,
          "durationTicks": 9420,
          "midi": 57,
          "name": "A3",
          "ticks": 3591358,
          "time": 150.69319388239592,
          "velocity": 0.5433070866141733
        },
        {
          "duration": 0.2791952829166746,
          "durationTicks": 9604,
          "midi": 60,
          "name": "C4",
          "ticks": 3600876,
          "time": 150.96988429104178,
          "velocity": 0.4881889763779528
        },
        {
          "duration": 0.2827419118750072,
          "durationTicks": 9726,
          "midi": 59,
          "name": "B3",
          "ticks": 3610509,
          "time": 151.24992262510426,
          "velocity": 0.4645669291338583
        },
        {
          "duration": 0.2764335636458384,
          "durationTicks": 9509,
          "midi": 55,
          "name": "G3",
          "ticks": 3620273,
          "time": 151.5337692246876,
          "velocity": 0.4409448818897638
        },
        {
          "duration": 0.28588155062502096,
          "durationTicks": 9834,
          "midi": 60,
          "name": "C4",
          "ticks": 3629722,
          "time": 151.80845854458343,
          "velocity": 0.47244094488188976
        },
        {
          "duration": 0.2696600837500114,
          "durationTicks": 9276,
          "midi": 59,
          "name": "B3",
          "ticks": 3639391,
          "time": 152.08954342489594,
          "velocity": 0.5433070866141733
        },
        {
          "duration": 0.27448582479166816,
          "durationTicks": 9442,
          "midi": 53,
          "name": "F3",
          "ticks": 3648920,
          "time": 152.3665584031251,
          "velocity": 0.4881889763779528
        },
        {
          "duration": 0.27018335687500894,
          "durationTicks": 9294,
          "midi": 60,
          "name": "C4",
          "ticks": 3658615,
          "time": 152.64839912239594,
          "velocity": 0.4881889763779528
        },
        {
          "duration": 0.28262562895832843,
          "durationTicks": 9722,
          "midi": 59,
          "name": "B3",
          "ticks": 3668077,
          "time": 152.92346636177095,
          "velocity": 0.5275590551181102
        },
        {
          "duration": 0.2768405538541572,
          "durationTicks": 9523,
          "midi": 57,
          "name": "A3",
          "ticks": 3677791,
          "time": 153.20585942489595,
          "velocity": 0.5433070866141733
        },
        {
          "duration": 0.2734683492708143,
          "durationTicks": 9407,
          "midi": 60,
          "name": "C4",
          "ticks": 3687412,
          "time": 153.48554891020845,
          "velocity": 0.5275590551181102
        },
        {
          "duration": 0.26881703260414724,
          "durationTicks": 9247,
          "midi": 59,
          "name": "B3",
          "ticks": 3697052,
          "time": 153.76579073937512,
          "velocity": 0.4645669291338583
        },
        {
          "duration": 0.2757649368749924,
          "durationTicks": 9486,
          "midi": 55,
          "name": "G3",
          "ticks": 3706507,
          "time": 154.04065448364594,
          "velocity": 0.4645669291338583
        },
        {
          "duration": 0.278247842708339,
          "durationTicks": 9565,
          "midi": 57,
          "name": "A3",
          "ticks": 3716197,
          "time": 154.32235043364594,
          "velocity": 0.5039370078740157
        },
        {
          "duration": 0.2796441727083163,
          "durationTicks": 9613,
          "midi": 59,
          "name": "B3",
          "ticks": 3725717,
          "time": 154.5992892169793,
          "velocity": 0.47244094488188976
        },
        {
          "duration": 0.272458891250011,
          "durationTicks": 9366,
          "midi": 60,
          "name": "C4",
          "ticks": 3735520,
          "time": 154.88446052927094,
          "velocity": 0.4645669291338583
        },
        {
          "duration": 0.2874112583333499,
          "durationTicks": 9880,
          "midi": 59,
          "name": "B3",
          "ticks": 3745058,
          "time": 155.16192293635427,
          "velocity": 0.4881889763779528
        },
        {
          "duration": 0.28537494374998573,
          "durationTicks": 9810,
          "midi": 57,
          "name": "A3",
          "ticks": 3754486,
          "time": 155.43618542052096,
          "velocity": 0.5433070866141733
        },
        {
          "duration": 0.8277909683333462,
          "durationTicks": 28456,
          "midi": 59,
          "name": "B3",
          "ticks": 3764177,
          "time": 155.71809862947927,
          "velocity": 0.4409448818897638
        },
        {
          "duration": 0.5486413291666565,
          "durationTicks": 18860,
          "midi": 55,
          "name": "G3",
          "ticks": 3793045,
          "time": 156.55787476364594,
          "velocity": 0.5039370078740157
        },
        {
          "duration": 0.2618522166666537,
          "durationTicks": 9232,
          "midi": 60,
          "name": "C4",
          "ticks": 3821801,
          "time": 157.3943680878126,
          "velocity": 0.5196850393700787
        },
        {
          "duration": 0.26213585208333257,
          "durationTicks": 9242,
          "midi": 59,
          "name": "B3",
          "ticks": 3831356,
          "time": 157.6653817284376,
          "velocity": 0.5433070866141733
        },
        {
          "duration": 0.2644616624999969,
          "durationTicks": 9324,
          "midi": 57,
          "name": "A3",
          "ticks": 3840905,
          "time": 157.9362251878126,
          "velocity": 0.6141732283464567
        },
        {
          "duration": 0.27506962708332594,
          "durationTicks": 9698,
          "midi": 60,
          "name": "C4",
          "ticks": 3850588,
          "time": 158.21086936177093,
          "velocity": 0.5748031496062992
        },
        {
          "duration": 0.27972124791668307,
          "durationTicks": 9862,
          "midi": 59,
          "name": "B3",
          "ticks": 3860233,
          "time": 158.48443572114593,
          "velocity": 0.6141732283464567
        },
        {
          "duration": 0.27073000520832124,
          "durationTicks": 9545,
          "midi": 57,
          "name": "A3",
          "ticks": 3869803,
          "time": 158.75587481489595,
          "velocity": 0.5984251968503937
        },
        {
          "duration": 0.2625909518749836,
          "durationTicks": 9478,
          "midi": 60,
          "name": "C4",
          "ticks": 3879386,
          "time": 159.02767012833343,
          "velocity": 0.6929133858267716
        },
        {
          "duration": 0.2691017003124898,
          "durationTicks": 9713,
          "midi": 59,
          "name": "B3",
          "ticks": 3889063,
          "time": 159.29577443739592,
          "velocity": 0.6614173228346457
        },
        {
          "duration": 0.27144617708333385,
          "durationTicks": 9792,
          "midi": 57,
          "name": "A3",
          "ticks": 3898532,
          "time": 159.55811604145842,
          "velocity": 0.6614173228346457
        },
        {
          "duration": 0.2680623744791717,
          "durationTicks": 9341,
          "midi": 60,
          "name": "C4",
          "ticks": 3908307,
          "time": 159.82907436281258,
          "velocity": 0.7716535433070866
        },
        {
          "duration": 0.2715921541666546,
          "durationTicks": 9464,
          "midi": 59,
          "name": "B3",
          "ticks": 3917908,
          "time": 160.10459806020842,
          "velocity": 0.7322834645669292
        },
        {
          "duration": 0.2731027671874813,
          "durationTicks": 9516,
          "midi": 57,
          "name": "A3",
          "ticks": 3927454,
          "time": 160.37854340083342,
          "velocity": 0.6692913385826772
        },
        {
          "duration": 0.34005867499999454,
          "durationTicks": 9768,
          "midi": 60,
          "name": "C4",
          "ticks": 3937038,
          "time": 160.65401348885425,
          "velocity": 0.6692913385826772
        },
        {
          "duration": 0.3394668447916729,
          "durationTicks": 9751,
          "midi": 59,
          "name": "B3",
          "ticks": 3946501,
          "time": 160.9834540336459,
          "velocity": 0.7322834645669292
        },
        {
          "duration": 0.3342099999999846,
          "durationTicks": 9600,
          "midi": 57,
          "name": "A3",
          "ticks": 3956150,
          "time": 161.31936989718758,
          "velocity": 0.7165354330708661
        },
        {
          "duration": 0.3878385677083429,
          "durationTicks": 9701,
          "midi": 60,
          "name": "C4",
          "ticks": 3965634,
          "time": 161.64954152635426,
          "velocity": 0.6929133858267716
        },
        {
          "duration": 0.39418235208333385,
          "durationTicks": 9842,
          "midi": 59,
          "name": "B3",
          "ticks": 3975403,
          "time": 162.04010356489593,
          "velocity": 0.6141732283464567
        },
        {
          "duration": 0.39488978187500834,
          "durationTicks": 9811,
          "midi": 57,
          "name": "A3",
          "ticks": 3984965,
          "time": 162.4230716253126,
          "velocity": 0.5669291338582677
        },
        {
          "duration": 0.45208702583332183,
          "durationTicks": 9158,
          "midi": 60,
          "name": "C4",
          "ticks": 3994556,
          "time": 162.80720116593758,
          "velocity": 0.5354330708661418
        },
        {
          "duration": 0.47164392999999905,
          "durationTicks": 9552,
          "midi": 59,
          "name": "B3",
          "ticks": 4004099,
          "time": 163.27829812822924,
          "velocity": 0.49606299212598426
        },
        {
          "duration": 0.4801366808333398,
          "durationTicks": 9724,
          "midi": 57,
          "name": "A3",
          "ticks": 4013679,
          "time": 163.75132459906257,
          "velocity": 0.47244094488188976
        },
        {
          "duration": 1.3363244683333448,
          "durationTicks": 27064,
          "midi": 60,
          "name": "C4",
          "ticks": 4023356,
          "time": 164.22914058635425,
          "velocity": 0.33858267716535434
        }
      ],
      "endOfTrackTicks": 4132756
    },
    {
      "channel": 0,
      "controlChanges": {},
      "pitchBends": [],
      "instrument": {
        "family": "piano",
        "number": 0,
        "name": "acoustic grand piano"
      },
      "name": "Kontakt Piano",
      "notes": [],
      "endOfTrackTicks": 0
    },
    {
      "channel": 0,
      "controlChanges": {},
      "pitchBends": [],
      "instrument": {
        "family": "piano",
        "number": 0,
        "name": "acoustic grand piano"
      },
      "name": "Track 1",
      "notes": [],
      "endOfTrackTicks": 0
    },
    {
      "channel": 0,
      "controlChanges": {},
      "pitchBends": [],
      "instrument": {
        "family": "piano",
        "number": 0,
        "name": "acoustic grand piano"
      },
      "name": "Track 2",
      "notes": [],
      "endOfTrackTicks": 0
    }
  ]
}